<svg data-v-423bf9ae="" xmlns="http://www.w3.org/2000/svg" viewBox="0 0 923 90" class="iconLeftSlogan"><!----><!----><!----><g data-v-423bf9ae="" id="6c377ed8-d266-4aee-aa4c-737c2c9c3393" fill="white" transform="matrix(6.054490506946714,0,0,6.054490506946714,122.469595199808,-17.134207672738235)"><path d="M0.34 2.90L7.76 2.90L7.76 3.92L4.68 3.92L4.68 12.67L3.42 12.67L3.42 3.92L0.34 3.92L0.34 2.90ZM12.09 5.50L12.09 5.50Q15.15 5.50 15.15 8.52L15.15 8.52Q15.15 8.96 15.09 9.45L15.09 9.45L10.05 9.45Q10.05 11.65 12.62 11.65L12.62 11.65Q13.84 11.65 14.79 11.38L14.79 11.38L14.79 12.40Q13.84 12.67 12.48 12.67L12.48 12.67Q8.78 12.67 8.78 9.00L8.78 9.00Q8.78 5.50 12.09 5.50ZM10.05 8.39L10.05 8.39L13.93 8.39Q13.89 6.51 12.09 6.51L12.09 6.51Q10.17 6.51 10.05 8.39ZM18.12 12.67L16.85 12.67L16.85 5.50L17.71 5.50L17.93 6.41Q18.87 5.50 20.20 5.50L20.20 5.50L20.20 6.55Q18.92 6.55 18.12 7.46L18.12 7.46L18.12 12.67ZM22.73 12.67L21.46 12.67L21.46 5.50L22.32 5.50L22.54 6.41Q23.49 5.50 24.81 5.50L24.81 5.50L24.81 6.55Q23.53 6.55 22.73 7.46L22.73 7.46L22.73 12.67ZM25.74 10.51L25.74 10.51Q25.74 8.30 28.65 8.30L28.65 8.30Q29.59 8.30 30.52 8.44L30.52 8.44L30.52 7.76Q30.52 6.52 28.59 6.52L28.59 6.52Q27.48 6.52 26.32 6.86L26.32 6.86L26.32 5.84Q27.48 5.50 28.59 5.50L28.59 5.50Q31.79 5.50 31.79 7.72L31.79 7.72L31.79 12.67L31.08 12.67L30.64 11.96Q29.57 12.67 28.30 12.67L28.30 12.67Q25.74 12.67 25.74 10.51ZM28.65 9.32L28.65 9.32Q27.00 9.32 27.00 10.49L27.00 10.49Q27.00 11.65 28.30 11.65L28.30 11.65Q29.61 11.65 30.52 10.95L30.52 10.95L30.52 9.46Q29.59 9.32 28.65 9.32ZM37.39 2.90L43.78 2.90L43.78 3.92L38.66 3.92L38.66 7.21L43.54 7.21L43.54 8.23L38.66 8.23L38.66 12.67L37.39 12.67L37.39 2.90ZM46.07 9.06Q46.07 11.65 48.23 11.65L48.23 11.65Q50.38 11.65 50.38 9.06L50.38 9.06Q50.38 6.52 48.23 6.52L48.23 6.52Q46.07 6.52 46.07 9.06L46.07 9.06ZM44.81 9.08L44.81 9.08Q44.81 5.50 48.23 5.50L48.23 5.50Q51.65 5.50 51.65 9.08L51.65 9.08Q51.65 12.67 48.23 12.67L48.23 12.67Q44.82 12.67 44.81 9.08ZM53.42 2.90L54.69 2.90L54.69 12.67L53.42 12.67L53.42 2.90ZM58.07 12.67L56.81 12.67L56.81 2.90L58.07 2.90L58.07 6.06Q59.12 5.50 60.48 5.50L60.48 5.50Q63.16 5.50 63.16 7.57L63.16 7.57Q63.16 9.07 61.11 9.65L61.11 9.65L63.41 12.67L61.81 12.67L59.53 9.63L59.53 9.06Q61.90 8.85 61.90 7.56L61.90 7.56Q61.90 6.52 60.40 6.52L60.40 6.52Q59.21 6.52 58.07 7.16L58.07 7.16L58.07 12.67ZM64.95 2.90L66.21 2.90L66.21 12.67L64.95 12.67L64.95 2.90ZM69.25 9.06Q69.25 11.65 71.41 11.65L71.41 11.65Q73.56 11.65 73.56 9.06L73.56 9.06Q73.56 6.52 71.41 6.52L71.41 6.52Q69.25 6.52 69.25 9.06L69.25 9.06ZM67.99 9.08L67.99 9.08Q67.99 5.50 71.41 5.50L71.41 5.50Q74.83 5.50 74.83 9.08L74.83 9.08Q74.83 12.67 71.41 12.67L71.41 12.67Q68.00 12.67 67.99 9.08ZM77.80 12.67L76.54 12.67L76.54 5.50L77.39 5.50L77.62 6.41Q78.56 5.50 79.88 5.50L79.88 5.50L79.88 6.55Q78.60 6.55 77.80 7.46L77.80 7.46L77.80 12.67ZM84.11 5.50L84.11 5.50Q87.17 5.50 87.17 8.52L87.17 8.52Q87.17 8.96 87.11 9.45L87.11 9.45L82.07 9.45Q82.07 11.65 84.64 11.65L84.64 11.65Q85.87 11.65 86.82 11.38L86.82 11.38L86.82 12.40Q85.87 12.67 84.51 12.67L84.51 12.67Q80.81 12.67 80.81 9.00L80.81 9.00Q80.81 5.50 84.11 5.50ZM82.07 8.39L82.07 8.39L85.96 8.39Q85.91 6.51 84.11 6.51L84.11 6.51Q82.20 6.51 82.07 8.39ZM92.29 12.33L92.29 12.33L92.29 11.17Q93.83 11.72 95.61 11.72L95.61 11.72Q98.14 11.72 98.14 9.87L98.14 9.87Q98.14 8.30 96.28 8.30L96.28 8.30L95.02 8.30Q91.95 8.30 91.95 5.63L91.95 5.63Q91.95 2.83 95.88 2.83L95.88 2.83Q97.59 2.83 99.06 3.24L99.06 3.24L99.06 4.40Q97.59 3.86 95.88 3.86L95.88 3.86Q93.21 3.86 93.21 5.63L93.21 5.63Q93.21 7.21 95.02 7.21L95.02 7.21L96.28 7.21Q99.40 7.21 99.40 9.87L99.40 9.87Q99.40 12.74 95.61 12.74L95.61 12.74Q93.83 12.74 92.29 12.33ZM101.11 10.74L101.11 4.33L101.90 4.33L102.18 5.50L104.12 5.50L104.12 6.52L102.38 6.52L102.38 10.64Q102.38 11.65 103.24 11.65L103.24 11.65L104.12 11.65L104.12 12.67L102.92 12.67Q101.11 12.67 101.11 10.74L101.11 10.74ZM110.65 5.50L111.91 5.50L111.91 12.67L111.04 12.67L110.82 11.76Q109.52 12.67 108.20 12.67L108.20 12.67Q105.72 12.67 105.72 10.00L105.72 10.00L105.72 5.50L106.99 5.50L106.99 10.02Q106.99 11.62 108.58 11.62L108.58 11.62Q109.66 11.62 110.65 10.71L110.65 10.71L110.65 5.50ZM118.78 11.35L118.78 6.96Q118.02 6.59 117.03 6.59L117.03 6.59Q114.86 6.59 114.86 8.89L114.86 8.89Q114.86 11.62 117.03 11.62L117.03 11.62Q118.02 11.62 118.78 11.35L118.78 11.35ZM120.05 2.90L120.05 12.24Q118.74 12.67 116.83 12.67L116.83 12.67Q113.62 12.67 113.62 8.94L113.62 8.94Q113.62 5.50 117.02 5.50L117.02 5.50Q117.95 5.50 118.78 5.84L118.78 5.84L118.78 2.90L120.05 2.90ZM122.23 5.50L123.50 5.50L123.50 12.67L122.23 12.67L122.23 5.50ZM122.23 2.90L123.50 2.90L123.50 4.09L122.23 4.09L122.23 2.90ZM126.61 9.06Q126.61 11.65 128.76 11.65L128.76 11.65Q130.92 11.65 130.92 9.06L130.92 9.06Q130.92 6.52 128.76 6.52L128.76 6.52Q126.61 6.52 126.61 9.06L126.61 9.06ZM125.34 9.08L125.34 9.08Q125.34 5.50 128.76 5.50L128.76 5.50Q132.18 5.50 132.18 9.08L132.18 9.08Q132.18 12.67 128.76 12.67L128.76 12.67Q125.36 12.67 125.34 9.08Z"></path></g><!----><g data-v-423bf9ae="" id="e1f32bff-a5a6-40fb-bb56-2d237b089d45" transform="matrix(1.054263493840415,0,0,1.054263493840415,-0.31028841849747124,-8.450134625936563)" stroke="none" fill="white"><path d="M92.422 47.256c.042-.18.066-.366.066-.555 0-1.759-1.923-3.183-4.296-3.183-.857 0-1.654.187-2.325.507a23.485 23.485 0 00-3.477-.682c-1.048-1.185-2.872-1.969-4.947-1.969-2.636 0-4.868 1.265-5.617 3.009-4.149 1.408-7.342 3.932-8.726 6.997h13.774l-.007.006c-.992.803-3.626 2.15-10.126 2.15-4 0-7.329 1.349-9.897 4.011-1.134 1.176-2.026 2.524-2.73 3.934-.927-4.731-1.291-11.464 1.908-12.767 9.229-3.76 15.616-11.02 16.367-18.406H100c-2.484-5.501-8.046-10.083-15.315-12.812.268-.471.416-.976.416-1.501 0-2.548-3.419-4.613-7.637-4.613-.788 0-1.548.072-2.263.206-1.355-2.298-4.688-3.668-8.361-3.202-4.533.575-7.867 3.726-7.447 7.039.016.121.037.24.063.358-5.299 1.131-10.01 3.169-13.743 5.845a.611.611 0 01-.041-.01c-.445-.604-1.255-1.009-2.183-1.009-.569 0-1.092.154-1.516.41a35.266 35.266 0 00-3.696-.194c-3.123 0-6.105.408-8.841 1.147a5.063 5.063 0 00-2.015-.409c-2.122 0-3.883 1.254-4.231 2.901-1.788.988-3.362 2.147-4.671 3.442-1.222-.589-2.697-.934-4.287-.934-4.218 0-7.637 2.421-7.637 5.409 0 .708.194 1.384.544 2.004-2.893 1.861-5.088 4.22-6.287 6.877h15.355c.148.893.677 2.524 2.538 4.032 2.672 2.162 7.133 3.26 13.261 3.26 2.625 0 4.687.81 6.302 2.478 4.16 4.297 3.938 12.68 3.936 12.76l.013.001-1.895 28.043h.004l-.001.005c0 1.006 3.964 1.822 8.854 1.822 4.889 0 8.853-.816 8.853-1.822l-.001-.005h.001l-1.346-21.651c.362-2.825 1.3-6.695 3.715-9.189 1.615-1.668 3.677-2.479 6.303-2.479 6.127 0 10.588-1.096 13.259-3.26 1.76-1.424 2.33-2.959 2.511-3.877h13.243c-.695-1.534-1.843-2.932-3.335-4.124zM40.499 35.335c-1.527-1.16-3.301-2.167-5.266-2.98h4.82c.087 1.043.236 2.037.446 2.98zm6.172 13.102c-.568 1.612-.906 3.462-1.012 5.522-.792-2.259-1.979-4.53-3.758-6.374-2.568-2.662-5.897-4.012-9.896-4.012-5.521 0-8.261-.964-9.588-1.773a4.533 4.533 0 01-.723-.536H43.09c.425.583.891 1.127 1.401 1.634a13.622 13.622 0 003.65 2.579 13.147 13.147 0 00-1.47 2.96zm4.4-5.921c-1.246-.431-2.644-1.15-3.859-2.356-1.852-1.84-2.951-4.458-3.282-7.804h17.267a13.442 13.442 0 00-1.154-2.046h4.414c-.352 1.653-1.274 3.41-2.688 5.078-2.127 2.512-5.138 4.608-8.707 6.062-.71.288-1.374.647-1.991 1.066z"></path></g><!----><g data-v-423bf9ae="" id="918bb37b-b729-4d42-be8c-a966218ac998" fill="white" transform="matrix(0.7766902754865945,0,0,0.7766902754865945,124.31064012953578,59.627190296661006)"><path d="M0.28 3.70L0.28 3.70Q0.28 3.47 0.69 3.47L0.69 3.47L3.01 3.47Q3.33 3.47 3.75 3.45Q4.17 3.43 4.41 3.43L4.41 3.43Q5.67 3.43 6.57 4.07Q7.46 4.70 7.46 5.78L7.46 5.78Q7.46 6.50 7.19 7.03Q6.92 7.57 6.59 7.81Q6.26 8.05 5.99 8.22Q5.71 8.40 5.71 8.46L5.71 8.46Q5.71 8.62 6.89 10.27Q8.06 11.91 8.50 12.38L8.50 12.38Q9.03 13.03 9.79 13.03L9.79 13.03Q9.98 13.03 9.98 13.20L9.98 13.20Q9.98 13.41 9.81 13.48Q9.65 13.55 8.95 13.55L8.95 13.55Q8.29 13.55 7.74 13.23L7.74 13.23Q7.04 12.82 5.38 10.09L5.38 10.09Q5.28 9.94 5.24 9.87L5.24 9.87Q4.56 8.78 4.20 8.78L4.20 8.78L3.91 8.78L3.05 8.78Q2.88 8.78 2.85 8.92Q2.81 9.06 2.81 9.77L2.81 9.77Q2.81 10.44 2.81 10.88Q2.81 11.31 2.82 11.43Q2.83 11.55 2.83 11.63Q2.83 11.70 2.83 11.75L2.83 11.75Q2.83 12.32 3.09 12.63Q3.36 12.95 3.69 13.00Q4.02 13.05 4.28 13.11Q4.55 13.17 4.55 13.31L4.55 13.31Q4.55 13.54 4.30 13.54L4.30 13.54Q4.28 13.54 3.33 13.49Q2.38 13.44 2.30 13.44L2.30 13.44Q1.89 13.44 1.33 13.47Q0.77 13.50 0.76 13.50L0.76 13.50Q0.46 13.50 0.46 13.27L0.46 13.27Q0.46 13.12 0.64 13.05Q0.83 12.99 1.05 12.96Q1.27 12.94 1.46 12.66Q1.64 12.38 1.64 11.86L1.64 11.86Q1.64 11.49 1.65 9.90Q1.65 8.30 1.65 7.45L1.65 7.45Q1.65 6.58 1.65 5.86Q1.64 5.14 1.64 5.08L1.64 5.08Q1.64 4.56 1.43 4.29Q1.22 4.02 0.96 3.98Q0.70 3.95 0.49 3.89Q0.28 3.84 0.28 3.70ZM2.81 5.54L2.81 5.94Q2.81 7.38 2.83 7.72Q2.84 8.06 2.93 8.12L2.93 8.12Q3.14 8.25 3.53 8.25L3.53 8.25L3.67 8.25L4.07 8.25Q5.26 8.25 5.78 7.70Q6.29 7.15 6.29 6.30L6.29 6.30Q6.29 5.43 5.61 4.72Q4.93 4.00 3.56 4.00L3.56 4.00Q3.04 4.00 2.93 4.28Q2.81 4.55 2.81 5.54L2.81 5.54ZM17.33 13.33L17.33 13.33Q17.33 13.13 17.54 13.06L17.54 13.06Q17.99 12.89 18.33 12.31Q18.66 11.73 19.99 8.83L19.99 8.83Q21.36 5.87 22.41 3.63L22.41 3.63Q22.51 3.42 22.59 3.36Q22.67 3.30 22.83 3.30L22.83 3.30Q22.96 3.30 23.00 3.36Q23.04 3.42 23.18 3.82L23.18 3.82Q23.27 4.06 23.33 4.23Q23.39 4.40 23.53 4.77Q23.67 5.15 23.84 5.56L23.84 5.56Q24.29 6.66 25.39 9.22Q26.49 11.77 26.59 11.98L26.59 11.98Q26.82 12.46 27.12 12.71Q27.41 12.95 27.63 12.97Q27.85 12.99 27.99 13.04Q28.14 13.09 28.14 13.26L28.14 13.26Q28.14 13.47 27.76 13.47L27.76 13.47Q27.61 13.47 27.16 13.43Q26.71 13.38 26.50 13.38L26.50 13.38Q26.24 13.38 25.82 13.41Q25.40 13.44 25.20 13.44L25.20 13.44Q24.77 13.44 24.65 13.40Q24.53 13.37 24.53 13.24L24.53 13.24Q24.53 13.15 24.64 13.08Q24.75 13.02 24.88 13.00Q25.00 12.98 25.12 12.87Q25.23 12.77 25.23 12.59L25.23 12.59Q25.23 12.28 24.88 11.33Q24.53 10.37 24.29 9.93L24.29 9.93Q24.16 9.69 23.72 9.69L23.72 9.69Q23.65 9.69 23.10 9.70Q22.55 9.72 22.02 9.72L22.02 9.72L21.28 9.72Q20.65 9.72 20.49 9.79Q20.33 9.86 20.20 10.12L20.20 10.12Q20.12 10.30 19.92 10.70Q19.73 11.10 19.66 11.26Q19.59 11.41 19.48 11.65Q19.38 11.90 19.34 12.05Q19.31 12.19 19.31 12.31L19.31 12.31Q19.31 12.63 19.47 12.80Q19.63 12.96 19.82 12.98Q20.02 13.01 20.18 13.06Q20.34 13.12 20.34 13.26L20.34 13.26Q20.34 13.36 20.30 13.40Q20.26 13.45 20.10 13.45L20.10 13.45Q20.02 13.45 19.62 13.45Q19.22 13.44 18.94 13.44L18.94 13.44Q18.63 13.44 18.25 13.47Q17.86 13.50 17.74 13.50L17.74 13.50Q17.33 13.50 17.33 13.33ZM20.85 8.71L20.85 8.71Q20.85 8.89 20.97 8.93Q21.10 8.97 21.56 8.97L21.56 8.97L21.99 8.97L23.32 8.96Q23.87 8.96 23.87 8.74L23.87 8.74Q23.87 8.55 23.18 7.01Q22.50 5.46 22.32 5.46L22.32 5.46Q22.19 5.46 21.52 7.01Q20.85 8.55 20.85 8.71ZM36.97 2.87L36.97 2.87Q36.97 2.80 37.07 2.65Q37.17 2.51 37.44 2.00Q37.72 1.50 38.02 0.74L38.02 0.74Q38.14 0.48 38.32 0.48L38.32 0.48Q38.47 0.48 38.76 0.57Q39.05 0.66 39.05 0.84L39.05 0.84Q39.05 1.16 37.69 2.59L37.69 2.59Q37.28 3.02 37.14 3.02L37.14 3.02Q36.97 3.02 36.97 2.87ZM35.70 3.71L35.70 3.71Q35.70 3.50 36.09 3.50L36.09 3.50Q36.23 3.50 36.74 3.53Q37.24 3.56 37.67 3.56L37.67 3.56Q37.94 3.56 38.19 3.54Q38.43 3.53 38.91 3.53L38.91 3.53Q39.28 3.53 39.28 3.72L39.28 3.72Q39.28 3.84 38.64 4.10L38.64 4.10Q38.19 4.28 38.19 5.71L38.19 5.71Q38.19 7.60 38.17 9.05Q38.15 10.50 38.15 10.89L38.15 10.89Q38.15 12.07 38.50 12.59L38.50 12.59Q38.81 13.02 39.17 13.02L39.17 13.02Q39.20 13.02 39.31 13.03Q39.42 13.03 39.45 13.03L39.45 13.03Q39.55 13.03 39.65 13.08Q39.75 13.13 39.75 13.19L39.75 13.19Q39.75 13.34 39.67 13.39Q39.59 13.44 39.40 13.44L39.40 13.44Q38.98 13.44 38.62 13.41Q38.26 13.38 38.07 13.38L38.07 13.38Q37.67 13.38 37.21 13.42Q36.75 13.45 36.53 13.45L36.53 13.45Q35.90 13.45 35.90 13.24L35.90 13.24Q35.90 13.12 36.03 13.07Q36.16 13.02 36.33 13.00Q36.50 12.98 36.68 12.82Q36.86 12.66 36.93 12.35L36.93 12.35Q36.96 12.25 37.02 10.76Q37.09 9.27 37.09 8.61L37.09 8.61L37.09 7.81Q37.09 7.63 37.09 7.12Q37.10 6.61 37.10 6.30L37.10 6.30L37.10 5.66Q37.10 5.04 37.04 4.63L37.04 4.63Q37.00 4.30 36.67 4.12Q36.34 3.93 35.99 3.92L35.99 3.92Q35.70 3.91 35.70 3.71ZM47.63 8.90L47.63 8.90Q47.63 7.38 48.22 6.16Q48.80 4.94 50.03 4.19Q51.25 3.44 52.93 3.44L52.93 3.44Q53.79 3.44 54.66 3.70Q55.52 3.95 56.04 4.20L56.04 4.20L56.56 4.47Q56.60 4.47 56.70 4.40Q56.80 4.33 56.85 4.33L56.85 4.33Q56.92 4.33 56.99 4.38Q57.06 4.44 57.06 4.55L57.06 4.55Q57.08 4.96 57.13 5.41Q57.18 5.87 57.22 6.16Q57.26 6.45 57.26 6.51L57.26 6.51Q57.26 6.76 57.09 6.76L57.09 6.76Q56.97 6.76 56.85 6.57L56.85 6.57Q55.50 4.02 52.93 4.02L52.93 4.02Q51.18 4.02 50.06 5.14Q48.94 6.26 48.94 8.06L48.94 8.06Q48.94 9.06 49.20 9.93Q49.46 10.79 49.99 11.51Q50.51 12.24 51.44 12.66Q52.36 13.08 53.59 13.08L53.59 13.08Q55.61 13.08 56.98 10.98L56.98 10.98Q57.04 10.88 57.19 10.88L57.19 10.88Q57.32 10.88 57.32 11.07L57.32 11.07Q57.32 11.23 57.27 11.49Q57.22 11.75 57.15 12.06Q57.08 12.38 57.06 12.45L57.06 12.45Q57.04 12.60 56.84 12.70L56.84 12.70Q56.08 13.06 55.66 13.24Q55.23 13.43 54.57 13.57Q53.91 13.72 53.23 13.72L53.23 13.72Q52.01 13.72 51.03 13.43Q50.05 13.13 49.43 12.66Q48.80 12.18 48.38 11.54Q47.96 10.91 47.80 10.25Q47.63 9.60 47.63 8.90ZM65.59 3.65L65.59 3.65Q65.59 3.46 65.98 3.46L65.98 3.46Q66.04 3.46 66.16 3.47Q66.29 3.49 66.36 3.49L66.36 3.49Q66.40 3.49 67.68 3.52Q68.95 3.56 69.78 3.56L69.78 3.56Q70.07 3.56 71.23 3.53Q72.38 3.50 72.58 3.50L72.58 3.50Q72.84 3.50 72.84 3.82L72.84 3.82Q72.84 3.91 72.76 4.38Q72.67 4.84 72.67 5.25L72.67 5.25Q72.67 5.38 72.60 5.47Q72.53 5.56 72.45 5.56L72.45 5.56Q72.24 5.56 72.24 5.26L72.24 5.26Q72.24 4.89 72.00 4.58Q71.76 4.27 71.41 4.26L71.41 4.26Q70.15 4.16 69.48 4.16L69.48 4.16L69.12 4.16Q68.39 4.16 68.27 4.26Q68.15 4.37 68.12 5.01L68.12 5.01Q68.07 6.02 68.07 7.35L68.07 7.35Q68.07 8.05 68.33 8.06L68.33 8.06L68.68 8.06L69.27 8.06L69.71 8.06Q70.55 8.06 70.83 8.01Q71.11 7.95 71.33 7.80L71.33 7.80Q71.60 7.62 71.65 7.28L71.65 7.28Q71.69 7.04 71.85 7.04L71.85 7.04Q71.97 7.04 72.00 7.08Q72.03 7.13 72.03 7.27L72.03 7.27Q72.03 7.36 71.97 7.91Q71.92 8.46 71.92 8.74L71.92 8.74Q71.92 9.00 71.94 9.24Q71.96 9.48 71.96 9.59L71.96 9.59Q71.96 9.94 71.86 9.94L71.86 9.94Q71.65 9.94 71.55 9.60L71.55 9.60Q71.36 9.02 71.20 8.92L71.20 8.92Q70.91 8.72 69.86 8.72L69.86 8.72Q69.44 8.72 69.18 8.72Q68.92 8.72 68.84 8.71Q68.77 8.71 68.72 8.71Q68.67 8.71 68.63 8.71L68.63 8.71Q68.05 8.71 68.05 8.97L68.05 8.97Q68.05 9.38 68.04 9.99Q68.03 10.60 68.03 10.99L68.03 10.99L68.03 11.55Q68.03 12.56 68.36 12.66L68.36 12.66Q68.71 12.77 68.96 12.77L68.96 12.77Q70.01 12.77 70.81 12.67Q71.60 12.57 72.00 12.42Q72.39 12.28 72.66 12.10Q72.93 11.93 73.00 11.78Q73.08 11.63 73.16 11.54Q73.23 11.44 73.32 11.44L73.32 11.44Q73.49 11.44 73.49 11.68L73.49 11.68Q73.49 12.28 72.88 12.89Q72.28 13.51 71.83 13.51L71.83 13.51Q70.83 13.51 69.56 13.44Q68.29 13.37 67.98 13.37L67.98 13.37Q67.59 13.37 67.00 13.43Q66.42 13.50 66.08 13.50L66.08 13.50Q65.79 13.50 65.79 13.36L65.79 13.36Q65.79 13.23 65.79 13.19Q65.79 13.15 65.83 13.12Q65.87 13.09 65.92 13.08Q65.97 13.08 66.10 13.03Q66.23 12.99 66.39 12.92L66.39 12.92Q66.72 12.75 66.83 12.26Q66.93 11.77 66.93 10.21L66.93 10.21L66.93 8.47Q66.93 8.09 66.95 7.29Q66.98 6.50 66.98 6.05L66.98 6.05Q66.98 5.67 66.95 4.77L66.95 4.77Q66.93 4.37 66.60 4.14Q66.26 3.92 65.81 3.91L65.81 3.91Q65.59 3.91 65.59 3.65ZM81.59 10.82L81.59 10.82Q81.59 10.53 81.79 10.53L81.79 10.53Q81.97 10.53 82.01 10.67L82.01 10.67Q82.15 11.00 82.27 11.25Q82.39 11.49 82.66 11.85Q82.92 12.21 83.23 12.44Q83.54 12.67 84.02 12.84Q84.50 13.01 85.08 13.01L85.08 13.01Q86.13 13.01 86.77 12.45Q87.40 11.90 87.40 11.00L87.40 11.00Q87.40 10.35 86.97 9.90Q86.53 9.46 85.97 9.27Q85.41 9.09 84.55 8.77Q83.69 8.46 83.15 8.13L83.15 8.13Q81.87 7.38 81.87 6.08L81.87 6.08Q81.87 4.83 82.78 4.08Q83.68 3.33 85.12 3.33L85.12 3.33Q85.65 3.33 86.39 3.56Q87.12 3.79 87.14 3.79L87.14 3.79Q87.18 3.79 87.29 3.74Q87.40 3.68 87.46 3.68L87.46 3.68Q87.64 3.68 87.67 3.79L87.67 3.79Q87.96 5.49 87.96 5.70L87.96 5.70Q87.96 6.09 87.77 6.09L87.77 6.09Q87.64 6.09 87.57 5.89L87.57 5.89Q87.40 5.49 87.24 5.24Q87.08 4.98 87.01 4.91Q86.94 4.84 86.65 4.58L86.65 4.58Q85.89 3.91 84.81 3.91L84.81 3.91Q83.94 3.91 83.36 4.33Q82.77 4.75 82.77 5.46L82.77 5.46Q82.77 6.09 83.11 6.50Q83.45 6.90 84.03 7.13Q84.60 7.35 85.23 7.55Q85.86 7.74 86.57 8.09Q87.28 8.44 87.74 8.93L87.74 8.93Q88.30 9.53 88.30 10.43L88.30 10.43Q88.30 11.90 87.36 12.76Q86.42 13.62 85.04 13.62L85.04 13.62Q84.07 13.62 83.48 13.52Q82.89 13.41 82.28 13.09L82.28 13.09Q82.10 12.98 81.84 12.00Q81.59 11.02 81.59 10.82ZM96.49 12.68L96.49 12.68Q96.49 12.61 96.53 12.54Q96.57 12.47 96.62 12.42Q96.67 12.38 96.77 12.29Q96.87 12.19 96.92 12.14L96.92 12.14Q96.96 12.10 97.03 12.00Q97.10 11.90 97.16 11.84Q97.22 11.79 97.31 11.74Q97.40 11.69 97.51 11.69L97.51 11.69Q97.58 11.69 97.79 11.86Q98 12.03 98.24 12.46Q98.48 12.89 98.48 13.44L98.48 13.44Q98.48 14.32 97.85 15.04Q97.23 15.76 96.85 15.76L96.85 15.76Q96.64 15.76 96.64 15.58L96.64 15.58Q96.64 15.48 96.78 15.36Q96.91 15.23 97.08 15.10Q97.24 14.97 97.38 14.71Q97.51 14.45 97.51 14.11L97.51 14.11Q97.51 13.83 97.38 13.62Q97.26 13.40 97.15 13.31Q97.05 13.22 96.73 12.98L96.73 12.98Q96.54 12.85 96.52 12.82Q96.49 12.78 96.49 12.68ZM116.49 3.77L116.49 3.77Q116.49 3.68 116.59 3.60Q116.69 3.53 116.84 3.53L116.84 3.53Q116.93 3.53 117.12 3.54Q117.32 3.54 117.38 3.54L117.38 3.54Q117.59 3.54 117.77 3.53Q117.95 3.51 118.06 3.51L118.06 3.51Q118.19 3.51 118.36 3.59Q118.52 3.67 118.55 3.75L118.55 3.75Q118.58 3.79 118.71 3.94Q118.83 4.09 119.04 4.33Q119.25 4.56 119.42 4.79L119.42 4.79Q121.32 7.27 124.52 10.77L124.52 10.77Q124.60 10.86 124.72 10.99Q124.84 11.12 124.89 11.18Q124.94 11.24 124.99 11.30Q125.05 11.35 125.08 11.38Q125.12 11.40 125.15 11.40L125.15 11.40Q125.29 11.40 125.29 10.53L125.29 10.53L125.29 8.89Q125.29 7.95 125.28 7.31Q125.27 6.66 125.27 6.38Q125.26 6.09 125.26 6.02L125.26 6.02L125.26 5.92Q125.26 5.45 125.19 5.11Q125.13 4.77 125.05 4.59Q124.96 4.41 124.80 4.28Q124.64 4.16 124.53 4.12Q124.42 4.09 124.21 4.05Q124.00 4.00 123.91 3.98L123.91 3.98Q123.63 3.89 123.63 3.74L123.63 3.74Q123.63 3.53 123.90 3.53L123.90 3.53Q123.98 3.53 124.57 3.54Q125.16 3.54 125.23 3.54L125.23 3.54Q125.57 3.54 125.98 3.53Q126.39 3.51 126.49 3.51L126.49 3.51Q126.73 3.51 126.82 3.56Q126.91 3.61 126.91 3.75L126.91 3.75Q126.91 3.81 126.83 3.86Q126.76 3.91 126.67 3.94Q126.59 3.98 126.50 4.00L126.50 4.00L126.42 4.03Q125.96 4.28 125.96 5.61L125.96 5.61L125.96 6.15Q125.96 7.21 125.88 9.83Q125.80 12.46 125.80 13.08L125.80 13.08L125.80 13.36Q125.80 13.68 125.61 13.68L125.61 13.68Q125.48 13.68 125.38 13.58L125.38 13.58Q120.74 8.19 119.83 7.17Q118.93 6.16 118.83 6.16L118.83 6.16Q118.69 6.16 118.69 7.11L118.69 7.11Q118.69 8.44 118.64 9.97Q118.58 11.51 118.58 11.65L118.58 11.65Q118.58 12.28 118.80 12.61Q119.01 12.94 119.27 12.98Q119.52 13.02 119.73 13.07Q119.95 13.12 119.95 13.26L119.95 13.26Q119.95 13.41 119.90 13.45Q119.85 13.50 119.73 13.50L119.73 13.50Q119.63 13.50 119.29 13.48Q118.94 13.47 118.23 13.47L118.23 13.47Q118.10 13.47 117.71 13.48Q117.32 13.50 117.04 13.50L117.04 13.50Q116.73 13.50 116.73 13.27L116.73 13.27Q116.73 13.15 116.91 13.11Q117.10 13.08 117.36 12.89Q117.63 12.71 117.77 12.21L117.77 12.21Q117.85 11.89 117.98 9.60Q118.10 7.32 118.10 6.45L118.10 6.45Q118.10 5.25 117.77 4.65Q117.43 4.06 116.68 3.98L116.68 3.98Q116.49 3.96 116.49 3.77ZM134.47 13.33L134.47 13.33Q134.47 13.13 134.68 13.06L134.68 13.06Q135.13 12.89 135.46 12.31Q135.80 11.73 137.13 8.83L137.13 8.83Q138.50 5.87 139.55 3.63L139.55 3.63Q139.65 3.42 139.73 3.36Q139.80 3.30 139.97 3.30L139.97 3.30Q140.10 3.30 140.14 3.36Q140.18 3.42 140.32 3.82L140.32 3.82Q140.41 4.06 140.47 4.23Q140.53 4.40 140.67 4.77Q140.81 5.15 140.98 5.56L140.98 5.56Q141.43 6.66 142.53 9.22Q143.63 11.77 143.72 11.98L143.72 11.98Q143.96 12.46 144.26 12.71Q144.55 12.95 144.77 12.97Q144.98 12.99 145.13 13.04Q145.28 13.09 145.28 13.26L145.28 13.26Q145.28 13.47 144.90 13.47L144.90 13.47Q144.75 13.47 144.30 13.43Q143.85 13.38 143.64 13.38L143.64 13.38Q143.37 13.38 142.95 13.41Q142.53 13.44 142.34 13.44L142.34 13.44Q141.90 13.44 141.78 13.40Q141.67 13.37 141.67 13.24L141.67 13.24Q141.67 13.15 141.78 13.08Q141.89 13.02 142.02 13.00Q142.14 12.98 142.25 12.87Q142.37 12.77 142.37 12.59L142.37 12.59Q142.37 12.28 142.02 11.33Q141.67 10.37 141.43 9.93L141.43 9.93Q141.30 9.69 140.85 9.69L140.85 9.69Q140.78 9.69 140.24 9.70Q139.69 9.72 139.16 9.72L139.16 9.72L138.42 9.72Q137.79 9.72 137.63 9.79Q137.47 9.86 137.34 10.12L137.34 10.12Q137.26 10.30 137.06 10.70Q136.86 11.10 136.79 11.26Q136.72 11.41 136.62 11.65Q136.51 11.90 136.48 12.05Q136.44 12.19 136.44 12.31L136.44 12.31Q136.44 12.63 136.60 12.80Q136.77 12.96 136.96 12.98Q137.16 13.01 137.32 13.06Q137.48 13.12 137.48 13.26L137.48 13.26Q137.48 13.36 137.44 13.40Q137.40 13.45 137.24 13.45L137.24 13.45Q137.16 13.45 136.76 13.45Q136.36 13.44 136.08 13.44L136.08 13.44Q135.77 13.44 135.39 13.47Q135.00 13.50 134.88 13.50L134.88 13.50Q134.47 13.50 134.47 13.33ZM137.98 8.71L137.98 8.71Q137.98 8.89 138.11 8.93Q138.24 8.97 138.70 8.97L138.70 8.97L139.13 8.97L140.46 8.96Q141.01 8.96 141.01 8.74L141.01 8.74Q141.01 8.55 140.32 7.01Q139.64 5.46 139.45 5.46L139.45 5.46Q139.33 5.46 138.66 7.01Q137.98 8.55 137.98 8.71ZM151.61 5.32L151.61 5.32Q151.61 4.76 151.75 3.88L151.75 3.88Q151.75 3.85 151.75 3.78Q151.76 3.71 151.77 3.69Q151.77 3.67 151.78 3.62Q151.79 3.57 151.80 3.55Q151.82 3.53 151.84 3.49Q151.86 3.46 151.89 3.44Q151.91 3.43 151.96 3.42Q152.00 3.40 152.05 3.39Q152.11 3.39 152.18 3.39L152.18 3.39Q152.40 3.39 153.36 3.44Q154.32 3.50 156.13 3.50L156.13 3.50Q159.21 3.50 160.44 3.43L160.44 3.43Q160.45 3.43 160.49 3.42Q160.52 3.42 160.54 3.42L160.54 3.42Q160.69 3.42 160.75 3.50Q160.80 3.58 160.80 3.65L160.80 3.65Q160.80 3.75 160.85 4.24Q160.89 4.73 160.89 4.79L160.89 4.79Q160.89 5.14 160.85 5.23Q160.80 5.32 160.66 5.32L160.66 5.32Q160.55 5.32 160.51 5.15L160.51 5.15Q160.40 4.75 160.31 4.60Q160.23 4.45 159.95 4.34Q159.67 4.23 159.10 4.23L159.10 4.23L157.28 4.23Q156.94 4.23 156.86 4.36Q156.79 4.49 156.79 5.12L156.79 5.12L156.79 5.81Q156.79 7.69 156.76 9.11Q156.74 10.54 156.74 10.93L156.74 10.93Q156.74 11.13 156.74 11.43Q156.73 11.73 156.73 11.84L156.73 11.84Q156.73 12.45 156.93 12.64L156.93 12.64Q157.11 12.81 157.33 12.90Q157.56 12.99 157.72 13.01Q157.88 13.02 157.99 13.08Q158.10 13.13 158.10 13.26L158.10 13.26Q158.10 13.41 158.03 13.45Q157.96 13.50 157.77 13.50L157.77 13.50Q157.60 13.50 157.02 13.44Q156.45 13.38 156.21 13.38L156.21 13.38Q156.04 13.38 155.53 13.43Q155.02 13.48 154.78 13.48L154.78 13.48Q154.27 13.48 154.27 13.26L154.27 13.26Q154.27 13.12 154.35 13.07Q154.43 13.02 154.68 12.98Q154.92 12.95 154.99 12.94L154.99 12.94Q155.47 12.82 155.53 12.38L155.53 12.38Q155.67 11.14 155.67 7.08L155.67 7.08L155.65 4.58Q155.65 4.31 155.50 4.25Q155.34 4.19 154.59 4.19L154.59 4.19Q153.61 4.19 153.11 4.24Q152.61 4.30 152.53 4.35Q152.45 4.40 152.33 4.54L152.33 4.54Q152.21 4.70 152.13 4.91Q152.05 5.11 152.03 5.24Q152.01 5.38 151.95 5.47Q151.89 5.56 151.76 5.56L151.76 5.56Q151.61 5.56 151.61 5.32ZM168.45 3.68L168.45 3.68Q168.45 3.61 168.46 3.58Q168.48 3.56 168.55 3.53Q168.62 3.50 168.77 3.50Q168.92 3.50 169.41 3.53Q169.90 3.56 170.35 3.56L170.35 3.56Q170.63 3.56 170.86 3.54Q171.09 3.53 171.67 3.53L171.67 3.53Q171.96 3.53 171.96 3.72L171.96 3.72Q171.96 3.85 171.86 3.88Q171.77 3.91 171.62 3.92Q171.47 3.93 171.33 4.02Q171.18 4.10 171.08 4.43Q170.98 4.76 170.98 5.32L170.98 5.32L170.98 5.71Q170.98 6.37 170.97 7.37Q170.97 8.37 170.97 8.74L170.97 8.74Q170.97 9.17 170.97 9.39Q170.98 9.62 171.01 10.04Q171.04 10.47 171.09 10.72Q171.14 10.96 171.25 11.32Q171.36 11.68 171.52 11.89Q171.68 12.10 171.93 12.35Q172.17 12.60 172.49 12.73Q172.82 12.87 173.25 12.96Q173.68 13.05 174.22 13.05L174.22 13.05Q174.66 13.05 174.92 13.03Q175.17 13.02 175.61 12.94Q176.05 12.87 176.31 12.72Q176.57 12.57 176.90 12.27Q177.23 11.97 177.41 11.54Q177.59 11.10 177.72 10.43Q177.84 9.76 177.84 8.90L177.84 8.90Q177.84 7.49 177.84 6.75Q177.83 6.01 177.83 5.94L177.83 5.94Q177.83 5.45 177.81 5.17Q177.79 4.89 177.67 4.55Q177.55 4.21 177.32 4.06L177.32 4.06Q177.18 3.96 176.96 3.93Q176.74 3.89 176.60 3.87Q176.46 3.85 176.46 3.75L176.46 3.75Q176.46 3.53 176.74 3.53L176.74 3.53Q176.82 3.53 177.28 3.54Q177.74 3.56 177.81 3.56L177.81 3.56Q178.15 3.56 178.53 3.54Q178.91 3.51 179.00 3.51L179.00 3.51Q179.30 3.51 179.30 3.70L179.30 3.70Q179.30 3.81 179.00 3.98Q178.70 4.16 178.63 4.30L178.63 4.30Q178.47 4.59 178.47 5.22L178.47 5.22Q178.47 5.32 178.48 5.62Q178.49 5.92 178.49 6.16L178.49 6.16Q178.49 8.85 178.26 10.28Q178.04 11.70 177.58 12.36Q177.13 13.01 176.22 13.40L176.22 13.40Q175.48 13.71 174.22 13.71L174.22 13.71Q171.88 13.71 170.90 12.81L170.90 12.81Q170.13 12.10 169.95 11.09Q169.76 10.09 169.76 7.64L169.76 7.64L169.76 7.41Q169.76 6.86 169.78 6.20Q169.79 5.54 169.79 5.39L169.79 5.39Q169.79 4.62 169.61 4.33Q169.43 4.05 168.76 3.95L168.76 3.95Q168.45 3.91 168.45 3.68ZM186.86 3.70L186.86 3.70Q186.86 3.47 187.26 3.47L187.26 3.47L189.59 3.47Q189.91 3.47 190.33 3.45Q190.75 3.43 190.99 3.43L190.99 3.43Q192.25 3.43 193.14 4.07Q194.04 4.70 194.04 5.78L194.04 5.78Q194.04 6.50 193.77 7.03Q193.49 7.57 193.16 7.81Q192.84 8.05 192.56 8.22Q192.29 8.40 192.29 8.46L192.29 8.46Q192.29 8.62 193.47 10.27Q194.64 11.91 195.08 12.38L195.08 12.38Q195.61 13.03 196.36 13.03L196.36 13.03Q196.56 13.03 196.56 13.20L196.56 13.20Q196.56 13.41 196.39 13.48Q196.22 13.55 195.52 13.55L195.52 13.55Q194.87 13.55 194.32 13.23L194.32 13.23Q193.62 12.82 191.95 10.09L191.95 10.09Q191.86 9.94 191.81 9.87L191.81 9.87Q191.14 8.78 190.78 8.78L190.78 8.78L190.48 8.78L189.63 8.78Q189.46 8.78 189.43 8.92Q189.39 9.06 189.39 9.77L189.39 9.77Q189.39 10.44 189.39 10.88Q189.39 11.31 189.40 11.43Q189.41 11.55 189.41 11.63Q189.41 11.70 189.41 11.75L189.41 11.75Q189.41 12.32 189.67 12.63Q189.94 12.95 190.27 13.00Q190.60 13.05 190.86 13.11Q191.13 13.17 191.13 13.31L191.13 13.31Q191.13 13.54 190.88 13.54L190.88 13.54Q190.86 13.54 189.91 13.49Q188.96 13.44 188.87 13.44L188.87 13.44Q188.47 13.44 187.91 13.47Q187.35 13.50 187.33 13.50L187.33 13.50Q187.04 13.50 187.04 13.27L187.04 13.27Q187.04 13.12 187.22 13.05Q187.40 12.99 187.63 12.96Q187.85 12.94 188.03 12.66Q188.22 12.38 188.22 11.86L188.22 11.86Q188.22 11.49 188.22 9.90Q188.23 8.30 188.23 7.45L188.23 7.45Q188.23 6.58 188.22 5.86Q188.22 5.14 188.22 5.08L188.22 5.08Q188.22 4.56 188.01 4.29Q187.80 4.02 187.54 3.98Q187.28 3.95 187.07 3.89Q186.86 3.84 186.86 3.70ZM189.39 5.54L189.39 5.94Q189.39 7.38 189.41 7.72Q189.42 8.06 189.50 8.12L189.50 8.12Q189.71 8.25 190.11 8.25L190.11 8.25L190.25 8.25L190.65 8.25Q191.84 8.25 192.35 7.70Q192.86 7.15 192.86 6.30L192.86 6.30Q192.86 5.43 192.19 4.72Q191.51 4.00 190.13 4.00L190.13 4.00Q189.62 4.00 189.50 4.28Q189.39 4.55 189.39 5.54L189.39 5.54ZM203.91 13.33L203.91 13.33Q203.91 13.13 204.12 13.06L204.12 13.06Q204.57 12.89 204.90 12.31Q205.24 11.73 206.57 8.83L206.57 8.83Q207.94 5.87 208.99 3.63L208.99 3.63Q209.09 3.42 209.17 3.36Q209.24 3.30 209.41 3.30L209.41 3.30Q209.54 3.30 209.58 3.36Q209.62 3.42 209.76 3.82L209.76 3.82Q209.85 4.06 209.91 4.23Q209.97 4.40 210.11 4.77Q210.25 5.15 210.42 5.56L210.42 5.56Q210.87 6.66 211.97 9.22Q213.07 11.77 213.16 11.98L213.16 11.98Q213.40 12.46 213.70 12.71Q213.99 12.95 214.21 12.97Q214.42 12.99 214.57 13.04Q214.72 13.09 214.72 13.26L214.72 13.26Q214.72 13.47 214.34 13.47L214.34 13.47Q214.19 13.47 213.74 13.43Q213.29 13.38 213.08 13.38L213.08 13.38Q212.81 13.38 212.39 13.41Q211.97 13.44 211.78 13.44L211.78 13.44Q211.34 13.44 211.22 13.40Q211.11 13.37 211.11 13.24L211.11 13.24Q211.11 13.15 211.22 13.08Q211.33 13.02 211.46 13.00Q211.58 12.98 211.69 12.87Q211.81 12.77 211.81 12.59L211.81 12.59Q211.81 12.28 211.46 11.33Q211.11 10.37 210.87 9.93L210.87 9.93Q210.74 9.69 210.29 9.69L210.29 9.69Q210.22 9.69 209.68 9.70Q209.13 9.72 208.60 9.72L208.60 9.72L207.86 9.72Q207.23 9.72 207.07 9.79Q206.91 9.86 206.78 10.12L206.78 10.12Q206.70 10.30 206.50 10.70Q206.30 11.10 206.23 11.26Q206.16 11.41 206.06 11.65Q205.95 11.90 205.92 12.05Q205.88 12.19 205.88 12.31L205.88 12.31Q205.88 12.63 206.04 12.80Q206.21 12.96 206.40 12.98Q206.60 13.01 206.76 13.06Q206.92 13.12 206.92 13.26L206.92 13.26Q206.92 13.36 206.88 13.40Q206.84 13.45 206.68 13.45L206.68 13.45Q206.60 13.45 206.20 13.45Q205.80 13.44 205.52 13.44L205.52 13.44Q205.21 13.44 204.83 13.47Q204.44 13.50 204.32 13.50L204.32 13.50Q203.91 13.50 203.91 13.33ZM207.42 8.71L207.42 8.71Q207.42 8.89 207.55 8.93Q207.68 8.97 208.14 8.97L208.14 8.97L208.57 8.97L209.90 8.96Q210.45 8.96 210.45 8.74L210.45 8.74Q210.45 8.55 209.76 7.01Q209.08 5.46 208.89 5.46L208.89 5.46Q208.77 5.46 208.10 7.01Q207.42 8.55 207.42 8.71ZM222.28 3.71L222.28 3.71Q222.28 3.46 222.66 3.46L222.66 3.46Q222.71 3.46 222.84 3.47Q222.96 3.49 223.03 3.49L223.03 3.49Q223.17 3.49 223.56 3.51Q223.94 3.54 224.25 3.54L224.25 3.54Q224.69 3.54 225.18 3.51Q225.67 3.49 225.72 3.49L225.72 3.49Q225.96 3.49 225.96 3.63L225.96 3.63Q225.96 3.82 225.79 3.88Q225.62 3.95 225.42 3.97Q225.22 3.99 225.03 4.28Q224.84 4.56 224.81 5.14L224.81 5.14Q224.78 5.68 224.74 8.19Q224.70 10.70 224.70 10.99L224.70 10.99L224.70 11.55Q224.70 12.56 225.04 12.66L225.04 12.66Q225.39 12.77 225.64 12.77L225.64 12.77Q226.69 12.77 227.48 12.67Q228.27 12.57 228.67 12.42Q229.07 12.28 229.33 12.10Q229.60 11.93 229.68 11.78Q229.75 11.63 229.83 11.54Q229.91 11.44 229.99 11.44L229.99 11.44Q230.16 11.44 230.16 11.68L230.16 11.68Q230.16 12.28 229.56 12.89Q228.96 13.51 228.51 13.51L228.51 13.51Q227.50 13.51 226.23 13.44Q224.97 13.37 224.66 13.37L224.66 13.37Q224.27 13.37 223.75 13.43Q223.24 13.48 222.91 13.48L222.91 13.48Q222.50 13.48 222.50 13.31L222.50 13.31Q222.50 13.22 222.58 13.15Q222.66 13.09 222.73 13.09L222.73 13.09Q222.94 13.09 223.13 12.95L223.13 12.95Q223.38 12.75 223.50 12.23Q223.61 11.70 223.61 10.21L223.61 10.21L223.61 8.47Q223.61 8.09 223.63 7.29Q223.65 6.50 223.65 6.05L223.65 6.05Q223.65 5.67 223.62 4.77L223.62 4.77Q223.61 4.37 223.27 4.14Q222.94 3.92 222.49 3.91L222.49 3.91Q222.35 3.91 222.31 3.86Q222.28 3.81 222.28 3.71ZM237.72 3.65L237.72 3.65Q237.72 3.46 238.11 3.46L238.11 3.46Q238.17 3.46 238.29 3.47Q238.42 3.49 238.49 3.49L238.49 3.49Q238.53 3.49 239.81 3.52Q241.08 3.56 241.91 3.56L241.91 3.56Q242.20 3.56 243.35 3.53Q244.51 3.50 244.71 3.50L244.71 3.50Q244.97 3.50 244.97 3.82L244.97 3.82Q244.97 3.91 244.89 4.38Q244.80 4.84 244.80 5.25L244.80 5.25Q244.80 5.38 244.73 5.47Q244.66 5.56 244.58 5.56L244.58 5.56Q244.37 5.56 244.37 5.26L244.37 5.26Q244.37 4.89 244.13 4.58Q243.89 4.27 243.54 4.26L243.54 4.26Q242.28 4.16 241.61 4.16L241.61 4.16L241.25 4.16Q240.52 4.16 240.40 4.26Q240.28 4.37 240.25 5.01L240.25 5.01Q240.20 6.02 240.20 7.35L240.20 7.35Q240.20 8.05 240.46 8.06L240.46 8.06L240.81 8.06L241.40 8.06L241.84 8.06Q242.68 8.06 242.96 8.01Q243.24 7.95 243.46 7.80L243.46 7.80Q243.73 7.62 243.78 7.28L243.78 7.28Q243.82 7.04 243.98 7.04L243.98 7.04Q244.10 7.04 244.13 7.08Q244.16 7.13 244.16 7.27L244.16 7.27Q244.16 7.36 244.10 7.91Q244.05 8.46 244.05 8.74L244.05 8.74Q244.05 9.00 244.07 9.24Q244.09 9.48 244.09 9.59L244.09 9.59Q244.09 9.94 243.99 9.94L243.99 9.94Q243.78 9.94 243.68 9.60L243.68 9.60Q243.49 9.02 243.33 8.92L243.33 8.92Q243.04 8.72 241.99 8.72L241.99 8.72Q241.57 8.72 241.31 8.72Q241.05 8.72 240.97 8.71Q240.90 8.71 240.85 8.71Q240.80 8.71 240.76 8.71L240.76 8.71Q240.18 8.71 240.18 8.97L240.18 8.97Q240.18 9.38 240.17 9.99Q240.16 10.60 240.16 10.99L240.16 10.99L240.16 11.55Q240.16 12.56 240.49 12.66L240.49 12.66Q240.84 12.77 241.09 12.77L241.09 12.77Q242.14 12.77 242.94 12.67Q243.73 12.57 244.13 12.42Q244.52 12.28 244.79 12.10Q245.06 11.93 245.13 11.78Q245.21 11.63 245.29 11.54Q245.36 11.44 245.45 11.44L245.45 11.44Q245.62 11.44 245.62 11.68L245.62 11.68Q245.62 12.28 245.01 12.89Q244.41 13.51 243.96 13.51L243.96 13.51Q242.96 13.51 241.69 13.44Q240.42 13.37 240.11 13.37L240.11 13.37Q239.72 13.37 239.13 13.43Q238.55 13.50 238.21 13.50L238.21 13.50Q237.92 13.50 237.92 13.36L237.92 13.36Q237.92 13.23 237.92 13.19Q237.92 13.15 237.96 13.12Q238 13.09 238.05 13.08Q238.10 13.08 238.23 13.03Q238.36 12.99 238.52 12.92L238.52 12.92Q238.85 12.75 238.96 12.26Q239.06 11.77 239.06 10.21L239.06 10.21L239.06 8.47Q239.06 8.09 239.09 7.29Q239.11 6.50 239.11 6.05L239.11 6.05Q239.11 5.67 239.08 4.77L239.08 4.77Q239.06 4.37 238.73 4.14Q238.39 3.92 237.94 3.91L237.94 3.91Q237.72 3.91 237.72 3.65ZM253.18 13.24L253.18 13.24Q253.18 13.17 253.29 12.99Q253.41 12.81 253.69 12.39Q253.97 11.97 254.24 11.49L254.24 11.49Q254.63 10.79 255.73 8.99Q256.83 7.20 257.61 5.87Q258.40 4.55 258.40 4.40Q258.40 4.24 257.80 4.24L257.80 4.24Q257.31 4.24 255.23 4.30L255.23 4.30Q254.79 4.31 254.46 4.52Q254.13 4.73 253.99 4.98Q253.86 5.22 253.75 5.42Q253.64 5.63 253.57 5.63L253.57 5.63Q253.39 5.63 253.39 5.40L253.39 5.40Q253.39 5.12 253.44 4.84Q253.50 4.56 253.50 4.48L253.50 4.48Q253.50 4.41 253.57 3.82L253.57 3.82Q253.58 3.64 253.67 3.58Q253.75 3.53 253.96 3.53L253.96 3.53Q254.04 3.53 254.43 3.54Q254.81 3.56 255.50 3.56Q256.19 3.57 256.98 3.57L256.98 3.57Q257.87 3.57 258.40 3.56Q258.94 3.56 259.50 3.56L259.50 3.56Q260.11 3.56 260.11 3.77L260.11 3.77Q260.11 3.95 257.54 8.18Q254.97 12.40 254.97 12.54L254.97 12.54Q254.97 12.64 255.08 12.71Q255.19 12.77 255.46 12.79Q255.74 12.81 255.95 12.82Q256.16 12.82 256.59 12.82L256.59 12.82Q258.01 12.82 258.64 12.75Q259.27 12.67 259.77 12.39L259.77 12.39Q259.94 12.29 260.06 12.17Q260.18 12.04 260.25 11.97Q260.32 11.90 260.39 11.90L260.39 11.90Q260.50 11.90 260.50 12.05L260.50 12.05Q260.50 12.31 260.06 13.01L260.06 13.01Q260.04 13.05 259.99 13.13Q259.95 13.20 259.93 13.23Q259.91 13.26 259.87 13.31Q259.83 13.37 259.78 13.39Q259.73 13.41 259.65 13.43Q259.57 13.44 259.48 13.44L259.48 13.44Q258.69 13.44 258.08 13.45Q257.47 13.45 256.91 13.45L256.91 13.45Q254.80 13.45 254.26 13.46Q253.72 13.47 253.46 13.47L253.46 13.47Q253.18 13.47 253.18 13.24ZM268.06 13.33L268.06 13.33Q268.06 13.13 268.27 13.06L268.27 13.06Q268.72 12.89 269.05 12.31Q269.39 11.73 270.72 8.83L270.72 8.83Q272.09 5.87 273.14 3.63L273.14 3.63Q273.24 3.42 273.31 3.36Q273.39 3.30 273.56 3.30L273.56 3.30Q273.69 3.30 273.73 3.36Q273.77 3.42 273.91 3.82L273.91 3.82Q273.99 4.06 274.06 4.23Q274.12 4.40 274.26 4.77Q274.40 5.15 274.57 5.56L274.57 5.56Q275.02 6.66 276.11 9.22Q277.21 11.77 277.31 11.98L277.31 11.98Q277.55 12.46 277.84 12.71Q278.14 12.95 278.35 12.97Q278.57 12.99 278.72 13.04Q278.87 13.09 278.87 13.26L278.87 13.26Q278.87 13.47 278.49 13.47L278.49 13.47Q278.33 13.47 277.89 13.43Q277.44 13.38 277.23 13.38L277.23 13.38Q276.96 13.38 276.54 13.41Q276.12 13.44 275.93 13.44L275.93 13.44Q275.49 13.44 275.37 13.40Q275.25 13.37 275.25 13.24L275.25 13.24Q275.25 13.15 275.37 13.08Q275.48 13.02 275.60 13.00Q275.73 12.98 275.84 12.87Q275.95 12.77 275.95 12.59L275.95 12.59Q275.95 12.28 275.60 11.33Q275.25 10.37 275.02 9.93L275.02 9.93Q274.89 9.69 274.44 9.69L274.44 9.69Q274.37 9.69 273.83 9.70Q273.28 9.72 272.75 9.72L272.75 9.72L272.01 9.72Q271.38 9.72 271.21 9.79Q271.05 9.86 270.93 10.12L270.93 10.12Q270.84 10.30 270.65 10.70Q270.45 11.10 270.38 11.26Q270.31 11.41 270.21 11.65Q270.10 11.90 270.07 12.05Q270.03 12.19 270.03 12.31L270.03 12.31Q270.03 12.63 270.19 12.80Q270.35 12.96 270.55 12.98Q270.75 13.01 270.91 13.06Q271.07 13.12 271.07 13.26L271.07 13.26Q271.07 13.36 271.03 13.40Q270.98 13.45 270.83 13.45L270.83 13.45Q270.75 13.45 270.35 13.45Q269.95 13.44 269.67 13.44L269.67 13.44Q269.36 13.44 268.97 13.47Q268.59 13.50 268.46 13.50L268.46 13.50Q268.06 13.50 268.06 13.33ZM271.57 8.71L271.57 8.71Q271.57 8.89 271.70 8.93Q271.82 8.97 272.29 8.97L272.29 8.97L272.72 8.97L274.05 8.96Q274.60 8.96 274.60 8.74L274.60 8.74Q274.60 8.55 273.91 7.01Q273.22 5.46 273.04 5.46L273.04 5.46Q272.92 5.46 272.24 7.01Q271.57 8.55 271.57 8.71ZM286.90 12.68L286.90 12.68Q286.90 12.61 286.94 12.54Q286.99 12.47 287.03 12.42Q287.08 12.38 287.18 12.29Q287.28 12.19 287.34 12.14L287.34 12.14Q287.38 12.10 287.45 12.00Q287.52 11.90 287.57 11.84Q287.63 11.79 287.72 11.74Q287.81 11.69 287.92 11.69L287.92 11.69Q287.99 11.69 288.20 11.86Q288.41 12.03 288.65 12.46Q288.89 12.89 288.89 13.44L288.89 13.44Q288.89 14.32 288.27 15.04Q287.64 15.76 287.27 15.76L287.27 15.76Q287.06 15.76 287.06 15.58L287.06 15.58Q287.06 15.48 287.19 15.36Q287.32 15.23 287.49 15.10Q287.66 14.97 287.79 14.71Q287.92 14.45 287.92 14.11L287.92 14.11Q287.92 13.83 287.80 13.62Q287.67 13.40 287.57 13.31Q287.46 13.22 287.14 12.98L287.14 12.98Q286.96 12.85 286.93 12.82Q286.90 12.78 286.90 12.68ZM306.91 3.65L306.91 3.65Q306.91 3.46 307.30 3.46L307.30 3.46Q307.36 3.46 307.48 3.47Q307.61 3.49 307.68 3.49L307.68 3.49Q307.72 3.49 308.99 3.52Q310.27 3.56 311.09 3.56L311.09 3.56Q311.39 3.56 312.54 3.53Q313.70 3.50 313.89 3.50L313.89 3.50Q314.16 3.50 314.16 3.82L314.16 3.82Q314.16 3.91 314.08 4.38Q313.99 4.84 313.99 5.25L313.99 5.25Q313.99 5.38 313.92 5.47Q313.85 5.56 313.77 5.56L313.77 5.56Q313.56 5.56 313.56 5.26L313.56 5.26Q313.56 4.89 313.32 4.58Q313.08 4.27 312.73 4.26L312.73 4.26Q311.47 4.16 310.80 4.16L310.80 4.16L310.44 4.16Q309.71 4.16 309.59 4.26Q309.47 4.37 309.44 5.01L309.44 5.01Q309.39 6.02 309.39 7.35L309.39 7.35Q309.39 8.05 309.65 8.06L309.65 8.06L310.00 8.06L310.59 8.06L311.02 8.06Q311.86 8.06 312.14 8.01Q312.42 7.95 312.65 7.80L312.65 7.80Q312.91 7.62 312.97 7.28L312.97 7.28Q313.01 7.04 313.17 7.04L313.17 7.04Q313.29 7.04 313.32 7.08Q313.35 7.13 313.35 7.27L313.35 7.27Q313.35 7.36 313.29 7.91Q313.24 8.46 313.24 8.74L313.24 8.74Q313.24 9.00 313.26 9.24Q313.28 9.48 313.28 9.59L313.28 9.59Q313.28 9.94 313.18 9.94L313.18 9.94Q312.97 9.94 312.87 9.60L312.87 9.60Q312.68 9.02 312.52 8.92L312.52 8.92Q312.23 8.72 311.18 8.72L311.18 8.72Q310.76 8.72 310.50 8.72Q310.24 8.72 310.16 8.71Q310.09 8.71 310.04 8.71Q309.99 8.71 309.95 8.71L309.95 8.71Q309.37 8.71 309.37 8.97L309.37 8.97Q309.37 9.38 309.36 9.99Q309.34 10.60 309.34 10.99L309.34 10.99L309.34 11.55Q309.34 12.56 309.68 12.66L309.68 12.66Q310.03 12.77 310.28 12.77L310.28 12.77Q311.33 12.77 312.12 12.67Q312.91 12.57 313.31 12.42Q313.71 12.28 313.98 12.10Q314.24 11.93 314.32 11.78Q314.40 11.63 314.47 11.54Q314.55 11.44 314.64 11.44L314.64 11.44Q314.80 11.44 314.80 11.68L314.80 11.68Q314.80 12.28 314.20 12.89Q313.60 13.51 313.15 13.51L313.15 13.51Q312.14 13.51 310.88 13.44Q309.61 13.37 309.30 13.37L309.30 13.37Q308.91 13.37 308.32 13.43Q307.73 13.50 307.40 13.50L307.40 13.50Q307.10 13.50 307.10 13.36L307.10 13.36Q307.10 13.23 307.10 13.19Q307.10 13.15 307.15 13.12Q307.19 13.09 307.24 13.08Q307.29 13.08 307.42 13.03Q307.55 12.99 307.71 12.92L307.71 12.92Q308.04 12.75 308.15 12.26Q308.25 11.77 308.25 10.21L308.25 10.21L308.25 8.47Q308.25 8.09 308.27 7.29Q308.29 6.50 308.29 6.05L308.29 6.05Q308.29 5.67 308.27 4.77L308.27 4.77Q308.25 4.37 307.92 4.14Q307.58 3.92 307.13 3.91L307.13 3.91Q306.91 3.91 306.91 3.65ZM322.36 3.71L322.36 3.71Q322.36 3.46 322.74 3.46L322.74 3.46Q322.80 3.46 322.92 3.47Q323.05 3.49 323.12 3.49L323.12 3.49Q323.26 3.49 323.64 3.51Q324.03 3.54 324.34 3.54L324.34 3.54Q324.77 3.54 325.26 3.51Q325.75 3.49 325.81 3.49L325.81 3.49Q326.05 3.49 326.05 3.63L326.05 3.63Q326.05 3.82 325.88 3.88Q325.71 3.95 325.51 3.97Q325.30 3.99 325.12 4.28Q324.93 4.56 324.90 5.14L324.90 5.14Q324.87 5.68 324.83 8.19Q324.79 10.70 324.79 10.99L324.79 10.99L324.79 11.55Q324.79 12.56 325.12 12.66L325.12 12.66Q325.47 12.77 325.72 12.77L325.72 12.77Q326.77 12.77 327.56 12.67Q328.36 12.57 328.75 12.42Q329.15 12.28 329.42 12.10Q329.69 11.93 329.76 11.78Q329.84 11.63 329.92 11.54Q329.99 11.44 330.08 11.44L330.08 11.44Q330.25 11.44 330.25 11.68L330.25 11.68Q330.25 12.28 329.64 12.89Q329.04 13.51 328.59 13.51L328.59 13.51Q327.59 13.51 326.32 13.44Q325.05 13.37 324.74 13.37L324.74 13.37Q324.35 13.37 323.84 13.43Q323.33 13.48 322.99 13.48L322.99 13.48Q322.59 13.48 322.59 13.31L322.59 13.31Q322.59 13.22 322.67 13.15Q322.74 13.09 322.81 13.09L322.81 13.09Q323.02 13.09 323.22 12.95L323.22 12.95Q323.47 12.75 323.58 12.23Q323.69 11.70 323.69 10.21L323.69 10.21L323.69 8.47Q323.69 8.09 323.71 7.29Q323.74 6.50 323.74 6.05L323.74 6.05Q323.74 5.67 323.71 4.77L323.71 4.77Q323.69 4.37 323.36 4.14Q323.02 3.92 322.57 3.91L322.57 3.91Q322.43 3.91 322.40 3.86Q322.36 3.81 322.36 3.71ZM337.81 3.65L337.81 3.65Q337.81 3.46 338.20 3.46L338.20 3.46Q338.25 3.46 338.38 3.47Q338.51 3.49 338.58 3.49L338.58 3.49Q338.62 3.49 339.89 3.52Q341.17 3.56 341.99 3.56L341.99 3.56Q342.29 3.56 343.44 3.53Q344.60 3.50 344.79 3.50L344.79 3.50Q345.06 3.50 345.06 3.82L345.06 3.82Q345.06 3.91 344.97 4.38Q344.89 4.84 344.89 5.25L344.89 5.25Q344.89 5.38 344.82 5.47Q344.75 5.56 344.67 5.56L344.67 5.56Q344.46 5.56 344.46 5.26L344.46 5.26Q344.46 4.89 344.22 4.58Q343.98 4.27 343.63 4.26L343.63 4.26Q342.37 4.16 341.70 4.16L341.70 4.16L341.33 4.16Q340.61 4.16 340.49 4.26Q340.37 4.37 340.34 5.01L340.34 5.01Q340.28 6.02 340.28 7.35L340.28 7.35Q340.28 8.05 340.55 8.06L340.55 8.06L340.90 8.06L341.49 8.06L341.92 8.06Q342.76 8.06 343.04 8.01Q343.32 7.95 343.55 7.80L343.55 7.80Q343.81 7.62 343.87 7.28L343.87 7.28Q343.91 7.04 344.06 7.04L344.06 7.04Q344.19 7.04 344.22 7.08Q344.25 7.13 344.25 7.27L344.25 7.27Q344.25 7.36 344.19 7.91Q344.13 8.46 344.13 8.74L344.13 8.74Q344.13 9.00 344.16 9.24Q344.18 9.48 344.18 9.59L344.18 9.59Q344.18 9.94 344.08 9.94L344.08 9.94Q343.87 9.94 343.77 9.60L343.77 9.60Q343.57 9.02 343.42 8.92L343.42 8.92Q343.13 8.72 342.08 8.72L342.08 8.72Q341.66 8.72 341.40 8.72Q341.14 8.72 341.06 8.71Q340.98 8.71 340.94 8.71Q340.89 8.71 340.84 8.71L340.84 8.71Q340.27 8.71 340.27 8.97L340.27 8.97Q340.27 9.38 340.26 9.99Q340.24 10.60 340.24 10.99L340.24 10.99L340.24 11.55Q340.24 12.56 340.58 12.66L340.58 12.66Q340.93 12.77 341.18 12.77L341.18 12.77Q342.23 12.77 343.02 12.67Q343.81 12.57 344.21 12.42Q344.61 12.28 344.88 12.10Q345.14 11.93 345.22 11.78Q345.30 11.63 345.37 11.54Q345.45 11.44 345.53 11.44L345.53 11.44Q345.70 11.44 345.70 11.68L345.70 11.68Q345.70 12.28 345.10 12.89Q344.50 13.51 344.05 13.51L344.05 13.51Q343.04 13.51 341.78 13.44Q340.51 13.37 340.20 13.37L340.20 13.37Q339.81 13.37 339.22 13.43Q338.63 13.50 338.30 13.50L338.30 13.50Q338.00 13.50 338.00 13.36L338.00 13.36Q338.00 13.23 338.00 13.19Q338.00 13.15 338.04 13.12Q338.09 13.09 338.13 13.08Q338.18 13.08 338.32 13.03Q338.45 12.99 338.60 12.92L338.60 12.92Q338.94 12.75 339.05 12.26Q339.15 11.77 339.15 10.21L339.15 10.21L339.15 8.47Q339.15 8.09 339.17 7.29Q339.19 6.50 339.19 6.05L339.19 6.05Q339.19 5.67 339.16 4.77L339.16 4.77Q339.15 4.37 338.81 4.14Q338.48 3.92 338.03 3.91L338.03 3.91Q337.81 3.91 337.81 3.65ZM353.60 8.83L353.60 8.83Q353.60 7.31 354.21 6.09Q354.82 4.87 356.08 4.12Q357.34 3.37 359.07 3.37L359.07 3.37Q359.74 3.37 360.33 3.48Q360.92 3.58 361.30 3.72Q361.68 3.86 361.96 4.01Q362.24 4.16 362.38 4.26Q362.53 4.37 362.56 4.37L362.56 4.37Q362.60 4.37 362.75 4.26Q362.89 4.16 362.95 4.16L362.95 4.16Q363.16 4.16 363.16 4.44L363.16 4.44Q363.17 4.84 363.22 5.29Q363.27 5.74 363.31 6.03Q363.36 6.33 363.36 6.38L363.36 6.38Q363.36 6.62 363.19 6.62Q363.02 6.62 362.95 6.45L362.95 6.45Q362.46 5.39 361.31 4.65Q360.16 3.92 358.95 3.92L358.95 3.92Q357.20 3.92 356.06 5.02Q354.91 6.12 354.91 8.06L354.91 8.06Q354.91 9.35 355.39 10.49Q355.87 11.62 356.84 12.36Q357.81 13.10 359.07 13.10L359.07 13.10Q360.15 13.10 361.03 12.61Q361.90 12.12 362.00 11.49L362.00 11.49Q362.04 11.16 362.04 9.73L362.04 9.73Q362.04 9.18 361.80 8.95L361.80 8.95Q361.63 8.78 361.19 8.72L361.19 8.72Q360.77 8.68 360.70 8.55L360.70 8.55Q360.67 8.50 360.67 8.41L360.67 8.41Q360.67 8.26 360.92 8.26L360.92 8.26Q361.10 8.26 361.70 8.29Q362.31 8.33 362.47 8.33L362.47 8.33Q362.75 8.33 363.08 8.32Q363.40 8.32 363.59 8.32L363.59 8.32L363.80 8.32Q364.03 8.32 364.03 8.44L364.03 8.44Q364.03 8.54 363.67 8.69Q363.31 8.85 363.27 9.09L363.27 9.09Q363.17 9.69 363.17 10.65L363.17 10.65Q363.17 11.07 363.19 11.40Q363.20 11.72 363.21 11.85Q363.22 11.98 363.23 12.08Q363.24 12.18 363.24 12.22L363.24 12.22Q363.24 12.29 363.14 12.33Q363.03 12.36 362.80 12.42Q362.56 12.49 362.36 12.60L362.36 12.60L362.26 12.66Q362.17 12.73 362.07 12.78Q361.97 12.84 361.81 12.92Q361.65 13.01 361.48 13.09Q361.31 13.17 361.10 13.26Q360.89 13.36 360.67 13.43Q360.44 13.50 360.21 13.55Q359.97 13.61 359.71 13.64Q359.45 13.68 359.20 13.68L359.20 13.68Q357.67 13.68 356.55 13.26Q355.42 12.85 354.80 12.14Q354.19 11.44 353.89 10.61Q353.60 9.79 353.60 8.83ZM371.71 13.33L371.71 13.33Q371.71 13.13 371.92 13.06L371.92 13.06Q372.37 12.89 372.71 12.31Q373.04 11.73 374.37 8.83L374.37 8.83Q375.75 5.87 376.80 3.63L376.80 3.63Q376.89 3.42 376.97 3.36Q377.05 3.30 377.22 3.30L377.22 3.30Q377.34 3.30 377.38 3.36Q377.43 3.42 377.57 3.82L377.57 3.82Q377.65 4.06 377.71 4.23Q377.78 4.40 377.92 4.77Q378.06 5.15 378.22 5.56L378.22 5.56Q378.67 6.66 379.77 9.22Q380.87 11.77 380.97 11.98L380.97 11.98Q381.21 12.46 381.50 12.71Q381.79 12.95 382.01 12.97Q382.23 12.99 382.38 13.04Q382.52 13.09 382.52 13.26L382.52 13.26Q382.52 13.47 382.14 13.47L382.14 13.47Q381.99 13.47 381.54 13.43Q381.09 13.38 380.88 13.38L380.88 13.38Q380.62 13.38 380.20 13.41Q379.78 13.44 379.58 13.44L379.58 13.44Q379.15 13.44 379.03 13.40Q378.91 13.37 378.91 13.24L378.91 13.24Q378.91 13.15 379.02 13.08Q379.13 13.02 379.26 13.00Q379.39 12.98 379.50 12.87Q379.61 12.77 379.61 12.59L379.61 12.59Q379.61 12.28 379.26 11.33Q378.91 10.37 378.67 9.93L378.67 9.93Q378.55 9.69 378.10 9.69L378.10 9.69Q378.03 9.69 377.48 9.70Q376.94 9.72 376.40 9.72L376.40 9.72L375.66 9.72Q375.03 9.72 374.87 9.79Q374.71 9.86 374.58 10.12L374.58 10.12Q374.50 10.30 374.30 10.70Q374.11 11.10 374.04 11.26Q373.97 11.41 373.86 11.65Q373.76 11.90 373.72 12.05Q373.69 12.19 373.69 12.31L373.69 12.31Q373.69 12.63 373.85 12.80Q374.01 12.96 374.21 12.98Q374.40 13.01 374.56 13.06Q374.72 13.12 374.72 13.26L374.72 13.26Q374.72 13.36 374.68 13.40Q374.64 13.45 374.49 13.45L374.49 13.45Q374.40 13.45 374.00 13.45Q373.60 13.44 373.32 13.44L373.32 13.44Q373.02 13.44 372.63 13.47Q372.25 13.50 372.12 13.50L372.12 13.50Q371.71 13.50 371.71 13.33ZM375.23 8.71L375.23 8.71Q375.23 8.89 375.35 8.93Q375.48 8.97 375.94 8.97L375.94 8.97L376.38 8.97L377.71 8.96Q378.25 8.96 378.25 8.74L378.25 8.74Q378.25 8.55 377.57 7.01Q376.88 5.46 376.70 5.46L376.70 5.46Q376.57 5.46 375.90 7.01Q375.23 8.55 375.23 8.71ZM390.08 3.77L390.08 3.77Q390.08 3.68 390.18 3.60Q390.28 3.53 390.43 3.53L390.43 3.53Q390.52 3.53 390.71 3.54Q390.91 3.54 390.96 3.54L390.96 3.54Q391.17 3.54 391.36 3.53Q391.54 3.51 391.65 3.51L391.65 3.51Q391.78 3.51 391.94 3.59Q392.11 3.67 392.14 3.75L392.14 3.75Q392.17 3.79 392.29 3.94Q392.42 4.09 392.63 4.33Q392.84 4.56 393.01 4.79L393.01 4.79Q394.91 7.27 398.10 10.77L398.10 10.77Q398.19 10.86 398.31 10.99Q398.43 11.12 398.48 11.18Q398.52 11.24 398.58 11.30Q398.64 11.35 398.67 11.38Q398.71 11.40 398.73 11.40L398.73 11.40Q398.87 11.40 398.87 10.53L398.87 10.53L398.87 8.89Q398.87 7.95 398.87 7.31Q398.86 6.66 398.85 6.38Q398.85 6.09 398.85 6.02L398.85 6.02L398.85 5.92Q398.85 5.45 398.78 5.11Q398.72 4.77 398.64 4.59Q398.55 4.41 398.39 4.28Q398.23 4.16 398.12 4.12Q398.01 4.09 397.80 4.05Q397.59 4.00 397.50 3.98L397.50 3.98Q397.22 3.89 397.22 3.74L397.22 3.74Q397.22 3.53 397.49 3.53L397.49 3.53Q397.57 3.53 398.16 3.54Q398.75 3.54 398.82 3.54L398.82 3.54Q399.15 3.54 399.57 3.53Q399.98 3.51 400.08 3.51L400.08 3.51Q400.32 3.51 400.41 3.56Q400.50 3.61 400.50 3.75L400.50 3.75Q400.50 3.81 400.42 3.86Q400.34 3.91 400.26 3.94Q400.18 3.98 400.09 4.00L400.09 4.00L400.01 4.03Q399.55 4.28 399.55 5.61L399.55 5.61L399.55 6.15Q399.55 7.21 399.47 9.83Q399.39 12.46 399.39 13.08L399.39 13.08L399.39 13.36Q399.39 13.68 399.20 13.68L399.20 13.68Q399.07 13.68 398.97 13.58L398.97 13.58Q394.32 8.19 393.42 7.17Q392.52 6.16 392.42 6.16L392.42 6.16Q392.28 6.16 392.28 7.11L392.28 7.11Q392.28 8.44 392.22 9.97Q392.17 11.51 392.17 11.65L392.17 11.65Q392.17 12.28 392.39 12.61Q392.60 12.94 392.85 12.98Q393.11 13.02 393.32 13.07Q393.54 13.12 393.54 13.26L393.54 13.26Q393.54 13.41 393.49 13.45Q393.44 13.50 393.32 13.50L393.32 13.50Q393.22 13.50 392.88 13.48Q392.53 13.47 391.82 13.47L391.82 13.47Q391.69 13.47 391.30 13.48Q390.91 13.50 390.63 13.50L390.63 13.50Q390.32 13.50 390.32 13.27L390.32 13.27Q390.32 13.15 390.50 13.11Q390.68 13.08 390.95 12.89Q391.22 12.71 391.36 12.21L391.36 12.21Q391.44 11.89 391.57 9.60Q391.69 7.32 391.69 6.45L391.69 6.45Q391.69 5.25 391.36 4.65Q391.02 4.06 390.26 3.98L390.26 3.98Q390.08 3.96 390.08 3.77ZM408.59 8.90L408.59 8.90Q408.59 7.38 409.18 6.16Q409.77 4.94 410.99 4.19Q412.22 3.44 413.90 3.44L413.90 3.44Q414.75 3.44 415.62 3.70Q416.49 3.95 417.00 4.20L417.00 4.20L417.52 4.47Q417.56 4.47 417.66 4.40Q417.76 4.33 417.82 4.33L417.82 4.33Q417.89 4.33 417.96 4.38Q418.03 4.44 418.03 4.55L418.03 4.55Q418.04 4.96 418.09 5.41Q418.14 5.87 418.18 6.16Q418.22 6.45 418.22 6.51L418.22 6.51Q418.22 6.76 418.05 6.76L418.05 6.76Q417.93 6.76 417.82 6.57L417.82 6.57Q416.46 4.02 413.90 4.02L413.90 4.02Q412.15 4.02 411.03 5.14Q409.91 6.26 409.91 8.06L409.91 8.06Q409.91 9.06 410.17 9.93Q410.42 10.79 410.95 11.51Q411.47 12.24 412.40 12.66Q413.32 13.08 414.55 13.08L414.55 13.08Q416.57 13.08 417.94 10.98L417.94 10.98Q418.00 10.88 418.15 10.88L418.15 10.88Q418.28 10.88 418.28 11.07L418.28 11.07Q418.28 11.23 418.23 11.49Q418.18 11.75 418.11 12.06Q418.04 12.38 418.03 12.45L418.03 12.45Q418.00 12.60 417.80 12.70L417.80 12.70Q417.05 13.06 416.62 13.24Q416.19 13.43 415.53 13.57Q414.88 13.72 414.19 13.72L414.19 13.72Q412.97 13.72 411.99 13.43Q411.01 13.13 410.39 12.66Q409.77 12.18 409.35 11.54Q408.93 10.91 408.76 10.25Q408.59 9.60 408.59 8.90ZM426.55 3.71L426.55 3.71Q426.55 3.50 426.94 3.50L426.94 3.50Q427.08 3.50 427.59 3.53Q428.09 3.56 428.53 3.56L428.53 3.56Q428.79 3.56 429.04 3.54Q429.28 3.53 429.76 3.53L429.76 3.53Q430.14 3.53 430.14 3.72L430.14 3.72Q430.14 3.84 429.49 4.10L429.49 4.10Q429.04 4.28 429.04 5.71L429.04 5.71Q429.04 7.60 429.02 9.05Q429.00 10.50 429.00 10.89L429.00 10.89Q429.00 12.07 429.35 12.59L429.35 12.59Q429.66 13.02 430.02 13.02L430.02 13.02Q430.05 13.02 430.16 13.03Q430.28 13.03 430.30 13.03L430.30 13.03Q430.40 13.03 430.50 13.08Q430.60 13.13 430.60 13.19L430.60 13.19Q430.60 13.34 430.52 13.39Q430.44 13.44 430.25 13.44L430.25 13.44Q429.83 13.44 429.47 13.41Q429.11 13.38 428.92 13.38L428.92 13.38Q428.53 13.38 428.06 13.42Q427.60 13.45 427.38 13.45L427.38 13.45Q426.75 13.45 426.75 13.24L426.75 13.24Q426.75 13.12 426.88 13.07Q427.01 13.02 427.18 13.00Q427.35 12.98 427.53 12.82Q427.71 12.66 427.78 12.35L427.78 12.35Q427.81 12.25 427.88 10.76Q427.94 9.27 427.94 8.61L427.94 8.61L427.94 7.81Q427.94 7.63 427.95 7.12Q427.95 6.61 427.95 6.30L427.95 6.30L427.95 5.66Q427.95 5.04 427.90 4.63L427.90 4.63Q427.85 4.30 427.53 4.12Q427.20 3.93 426.85 3.92L426.85 3.92Q426.55 3.91 426.55 3.71ZM438.14 13.33L438.14 13.33Q438.14 13.13 438.35 13.06L438.35 13.06Q438.80 12.89 439.14 12.31Q439.47 11.73 440.80 8.83L440.80 8.83Q442.18 5.87 443.23 3.63L443.23 3.63Q443.32 3.42 443.40 3.36Q443.48 3.30 443.65 3.30L443.65 3.30Q443.77 3.30 443.81 3.36Q443.86 3.42 444.00 3.82L444.00 3.82Q444.08 4.06 444.14 4.23Q444.21 4.40 444.35 4.77Q444.49 5.15 444.65 5.56L444.65 5.56Q445.10 6.66 446.20 9.22Q447.30 11.77 447.40 11.98L447.40 11.98Q447.64 12.46 447.93 12.71Q448.22 12.95 448.44 12.97Q448.66 12.99 448.81 13.04Q448.95 13.09 448.95 13.26L448.95 13.26Q448.95 13.47 448.57 13.47L448.57 13.47Q448.42 13.47 447.97 13.43Q447.52 13.38 447.31 13.38L447.31 13.38Q447.05 13.38 446.63 13.41Q446.21 13.44 446.01 13.44L446.01 13.44Q445.58 13.44 445.46 13.40Q445.34 13.37 445.34 13.24L445.34 13.24Q445.34 13.15 445.45 13.08Q445.56 13.02 445.69 13.00Q445.82 12.98 445.93 12.87Q446.04 12.77 446.04 12.59L446.04 12.59Q446.04 12.28 445.69 11.33Q445.34 10.37 445.10 9.93L445.10 9.93Q444.98 9.69 444.53 9.69L444.53 9.69Q444.46 9.69 443.91 9.70Q443.37 9.72 442.83 9.72L442.83 9.72L442.09 9.72Q441.46 9.72 441.30 9.79Q441.14 9.86 441.01 10.12L441.01 10.12Q440.93 10.30 440.73 10.70Q440.54 11.10 440.47 11.26Q440.40 11.41 440.29 11.65Q440.19 11.90 440.15 12.05Q440.12 12.19 440.12 12.31L440.12 12.31Q440.12 12.63 440.28 12.80Q440.44 12.96 440.64 12.98Q440.83 13.01 440.99 13.06Q441.15 13.12 441.15 13.26L441.15 13.26Q441.15 13.36 441.11 13.40Q441.07 13.45 440.92 13.45L440.92 13.45Q440.83 13.45 440.43 13.45Q440.03 13.44 439.75 13.44L439.75 13.44Q439.45 13.44 439.06 13.47Q438.68 13.50 438.55 13.50L438.55 13.50Q438.14 13.50 438.14 13.33ZM441.66 8.71L441.66 8.71Q441.66 8.89 441.78 8.93Q441.91 8.97 442.37 8.97L442.37 8.97L442.81 8.97L444.14 8.96Q444.68 8.96 444.68 8.74L444.68 8.74Q444.68 8.55 444.00 7.01Q443.31 5.46 443.13 5.46L443.13 5.46Q443.00 5.46 442.33 7.01Q441.66 8.55 441.66 8.71ZM457.06 12.67L457.06 12.67Q457.06 12.56 457.55 12.12L457.55 12.12Q457.59 12.08 457.71 11.94Q457.83 11.80 457.92 11.73Q458.01 11.66 458.14 11.66L458.14 11.66Q458.16 11.66 458.21 11.69Q458.25 11.72 458.30 11.77Q458.35 11.83 458.40 11.88Q458.44 11.93 458.51 12.03Q458.58 12.12 458.64 12.18L458.64 12.18Q458.68 12.22 458.80 12.33Q458.92 12.43 458.99 12.52Q459.06 12.61 459.06 12.67L459.06 12.67Q459.06 12.74 458.99 12.82Q458.92 12.89 458.78 13.01Q458.64 13.12 458.57 13.17L458.57 13.17Q458.51 13.23 458.42 13.37Q458.32 13.51 458.23 13.59Q458.14 13.66 458.05 13.66L458.05 13.66Q457.95 13.66 457.86 13.57Q457.76 13.47 457.65 13.33Q457.55 13.20 457.48 13.15L457.48 13.15Q457.06 12.85 457.06 12.67ZM457.16 8.74L457.16 8.74Q457.16 8.58 457.58 8.22L457.58 8.22Q457.63 8.16 457.72 8.04Q457.81 7.91 457.91 7.83Q458.00 7.76 458.11 7.76Q458.22 7.76 458.61 8.27L458.61 8.27Q458.64 8.32 458.75 8.41Q458.85 8.50 458.91 8.58Q458.98 8.67 458.98 8.75L458.98 8.75Q458.98 8.81 458.93 8.87Q458.89 8.93 458.84 8.97Q458.79 9.02 458.70 9.10Q458.60 9.18 458.56 9.23L458.56 9.23Q458.50 9.28 458.41 9.41Q458.32 9.53 458.23 9.61Q458.15 9.69 458.05 9.69Q457.95 9.69 457.86 9.60Q457.77 9.51 457.70 9.37Q457.62 9.24 457.58 9.20L457.58 9.20Q457.52 9.14 457.43 9.06Q457.34 8.99 457.29 8.94Q457.24 8.89 457.20 8.83Q457.16 8.78 457.16 8.74ZM477.13 5.32L477.13 5.32Q477.13 4.76 477.27 3.88L477.27 3.88Q477.27 3.85 477.28 3.78Q477.29 3.71 477.30 3.69Q477.30 3.67 477.31 3.62Q477.32 3.57 477.33 3.55Q477.34 3.53 477.37 3.49Q477.39 3.46 477.41 3.44Q477.44 3.43 477.48 3.42Q477.53 3.40 477.58 3.39Q477.64 3.39 477.71 3.39L477.71 3.39Q477.93 3.39 478.89 3.44Q479.85 3.50 481.66 3.50L481.66 3.50Q484.74 3.50 485.97 3.43L485.97 3.43Q485.98 3.43 486.02 3.42Q486.05 3.42 486.07 3.42L486.07 3.42Q486.22 3.42 486.28 3.50Q486.33 3.58 486.33 3.65L486.33 3.65Q486.33 3.75 486.37 4.24Q486.42 4.73 486.42 4.79L486.42 4.79Q486.42 5.14 486.37 5.23Q486.33 5.32 486.19 5.32L486.19 5.32Q486.08 5.32 486.04 5.15L486.04 5.15Q485.93 4.75 485.84 4.60Q485.76 4.45 485.48 4.34Q485.20 4.23 484.62 4.23L484.62 4.23L482.80 4.23Q482.47 4.23 482.39 4.36Q482.31 4.49 482.31 5.12L482.31 5.12L482.31 5.81Q482.31 7.69 482.29 9.11Q482.27 10.54 482.27 10.93L482.27 10.93Q482.27 11.13 482.27 11.43Q482.26 11.73 482.26 11.84L482.26 11.84Q482.26 12.45 482.45 12.64L482.45 12.64Q482.64 12.81 482.86 12.90Q483.08 12.99 483.25 13.01Q483.41 13.02 483.52 13.08Q483.63 13.13 483.63 13.26L483.63 13.26Q483.63 13.41 483.56 13.45Q483.49 13.50 483.29 13.50L483.29 13.50Q483.13 13.50 482.55 13.44Q481.98 13.38 481.74 13.38L481.74 13.38Q481.57 13.38 481.06 13.43Q480.55 13.48 480.31 13.48L480.31 13.48Q479.79 13.48 479.79 13.26L479.79 13.26Q479.79 13.12 479.88 13.07Q479.96 13.02 480.21 12.98Q480.45 12.95 480.52 12.94L480.52 12.94Q481.00 12.82 481.05 12.38L481.05 12.38Q481.19 11.14 481.19 7.08L481.19 7.08L481.18 4.58Q481.18 4.31 481.03 4.25Q480.87 4.19 480.12 4.19L480.12 4.19Q479.14 4.19 478.64 4.24Q478.14 4.30 478.06 4.35Q477.97 4.40 477.86 4.54L477.86 4.54Q477.74 4.70 477.66 4.91Q477.58 5.11 477.56 5.24Q477.54 5.38 477.48 5.47Q477.41 5.56 477.29 5.56L477.29 5.56Q477.13 5.56 477.13 5.32ZM493.98 3.68L493.98 3.68Q493.98 3.61 493.99 3.58Q494.00 3.56 494.07 3.53Q494.14 3.50 494.30 3.50Q494.45 3.50 494.94 3.53Q495.43 3.56 495.88 3.56L495.88 3.56Q496.16 3.56 496.39 3.54Q496.62 3.53 497.20 3.53L497.20 3.53Q497.49 3.53 497.49 3.72L497.49 3.72Q497.49 3.85 497.39 3.88Q497.29 3.91 497.15 3.92Q497 3.93 496.85 4.02Q496.71 4.10 496.61 4.43Q496.51 4.76 496.51 5.32L496.51 5.32L496.51 5.71Q496.51 6.37 496.50 7.37Q496.50 8.37 496.50 8.74L496.50 8.74Q496.50 9.17 496.50 9.39Q496.51 9.62 496.54 10.04Q496.57 10.47 496.62 10.72Q496.66 10.96 496.78 11.32Q496.89 11.68 497.05 11.89Q497.21 12.10 497.46 12.35Q497.70 12.60 498.02 12.73Q498.34 12.87 498.78 12.96Q499.21 13.05 499.74 13.05L499.74 13.05Q500.19 13.05 500.44 13.03Q500.70 13.02 501.14 12.94Q501.58 12.87 501.84 12.72Q502.10 12.57 502.43 12.27Q502.75 11.97 502.94 11.54Q503.12 11.10 503.24 10.43Q503.37 9.76 503.37 8.90L503.37 8.90Q503.37 7.49 503.36 6.75Q503.36 6.01 503.36 5.94L503.36 5.94Q503.36 5.45 503.34 5.17Q503.31 4.89 503.20 4.55Q503.08 4.21 502.85 4.06L502.85 4.06Q502.71 3.96 502.49 3.93Q502.26 3.89 502.12 3.87Q501.98 3.85 501.98 3.75L501.98 3.75Q501.98 3.53 502.26 3.53L502.26 3.53Q502.35 3.53 502.81 3.54Q503.27 3.56 503.34 3.56L503.34 3.56Q503.68 3.56 504.06 3.54Q504.43 3.51 504.53 3.51L504.53 3.51Q504.83 3.51 504.83 3.70L504.83 3.70Q504.83 3.81 504.53 3.98Q504.22 4.16 504.15 4.30L504.15 4.30Q504 4.59 504 5.22L504 5.22Q504 5.32 504.01 5.62Q504.01 5.92 504.01 6.16L504.01 6.16Q504.01 8.85 503.79 10.28Q503.57 11.70 503.11 12.36Q502.66 13.01 501.75 13.40L501.75 13.40Q501.00 13.71 499.74 13.71L499.74 13.71Q497.41 13.71 496.43 12.81L496.43 12.81Q495.66 12.10 495.47 11.09Q495.29 10.09 495.29 7.64L495.29 7.64L495.29 7.41Q495.29 6.86 495.31 6.20Q495.32 5.54 495.32 5.39L495.32 5.39Q495.32 4.62 495.14 4.33Q494.96 4.05 494.28 3.95L494.28 3.95Q493.98 3.91 493.98 3.68ZM522.37 3.65L522.37 3.65Q522.37 3.50 522.76 3.50L522.76 3.50Q522.90 3.50 523.40 3.53Q523.91 3.56 524.34 3.56L524.34 3.56Q524.61 3.56 524.85 3.54Q525.10 3.53 525.57 3.53L525.57 3.53Q525.88 3.53 525.88 3.72L525.88 3.72Q525.88 3.96 525.39 3.96L525.39 3.96Q525.11 3.96 524.99 4.54Q524.86 5.11 524.86 5.71L524.86 5.71L524.86 6.23Q524.86 6.57 524.85 6.99Q524.83 7.42 524.83 7.52L524.83 7.52Q524.83 7.87 524.92 7.97Q525 8.06 525.31 8.06L525.31 8.06Q525.34 8.06 525.85 8.06Q526.37 8.05 527.60 8.05L527.60 8.05Q527.72 8.05 527.98 8.06Q528.25 8.06 528.86 8.07Q529.47 8.08 530.25 8.08L530.25 8.08Q530.35 8.08 530.38 7.84L530.38 7.84Q530.40 7.56 530.40 6.13L530.40 6.13L530.40 5.38Q530.40 4.83 530.28 4.51Q530.17 4.19 529.99 4.09Q529.82 3.99 529.64 3.96Q529.47 3.93 529.35 3.88Q529.23 3.84 529.23 3.70Q529.23 3.56 529.77 3.56L529.77 3.56Q529.91 3.56 530.38 3.57Q530.84 3.58 531.13 3.58L531.13 3.58Q531.27 3.58 531.61 3.57Q531.94 3.56 532.22 3.56L532.22 3.56Q532.55 3.56 532.55 3.74Q532.55 3.92 532.35 3.92L532.35 3.92Q531.96 3.92 531.75 4.16Q531.55 4.40 531.55 4.79L531.55 4.79Q531.55 5.25 531.53 6.42Q531.51 7.59 531.51 8.19L531.51 8.19Q531.51 8.51 531.50 9.20Q531.48 9.90 531.48 10.29L531.48 10.29L531.48 10.81Q531.48 11.23 531.51 11.58Q531.54 11.94 531.54 12.10L531.54 12.10Q531.54 13.01 532.71 13.13L532.71 13.13Q532.88 13.13 532.88 13.29L532.88 13.29Q532.88 13.38 532.74 13.41Q532.60 13.44 532.20 13.44L532.20 13.44Q532.04 13.44 531.68 13.40Q531.33 13.37 531.12 13.37L531.12 13.37Q530.87 13.37 530.51 13.40Q530.15 13.44 529.80 13.44L529.80 13.44Q529.63 13.44 529.56 13.44Q529.49 13.44 529.42 13.42Q529.34 13.40 529.32 13.36Q529.30 13.33 529.30 13.26L529.30 13.26Q529.30 13.17 529.44 13.10Q529.58 13.03 529.75 12.99Q529.91 12.95 530.07 12.83Q530.24 12.71 530.26 12.53L530.26 12.53Q530.36 12.03 530.36 11.51L530.36 11.51Q530.36 11.37 530.37 11.12Q530.38 10.86 530.38 10.75L530.38 10.75Q530.38 10.50 530.39 9.93Q530.40 9.35 530.40 9.03L530.40 9.03Q530.40 8.82 530.24 8.74Q530.07 8.65 529.52 8.65L529.52 8.65Q529.31 8.65 528.56 8.68L528.56 8.68L527.80 8.69Q527.18 8.69 526.41 8.67Q525.64 8.65 525.22 8.65L525.22 8.65Q525.01 8.65 524.94 8.74Q524.87 8.82 524.87 9.17Q524.87 9.52 524.85 10.08Q524.82 10.64 524.82 10.89L524.82 10.89L524.82 11.49Q524.82 12.10 524.93 12.39Q525.04 12.68 525.48 12.96L525.48 12.96Q525.59 13.03 526.08 13.03L526.08 13.03Q526.18 13.03 526.26 13.08Q526.34 13.13 526.34 13.19L526.34 13.19Q526.34 13.44 525.90 13.44L525.90 13.44Q525.48 13.44 525.20 13.41Q524.93 13.38 524.73 13.38L524.73 13.38Q524.34 13.38 523.89 13.42Q523.45 13.45 523.22 13.45L523.22 13.45Q522.56 13.45 522.56 13.24L522.56 13.24Q522.56 13.12 522.70 13.07Q522.83 13.02 523.00 13.00Q523.17 12.98 523.35 12.82Q523.53 12.66 523.60 12.35L523.60 12.35Q523.64 12.11 523.71 10.91Q523.78 9.70 523.78 8.61L523.78 8.61L523.78 7.81Q523.78 7.63 523.79 7.12Q523.80 6.61 523.80 6.30L523.80 6.30Q523.80 5.24 523.71 4.63L523.71 4.63Q523.67 4.28 523.34 4.09Q523.01 3.89 522.66 3.89L522.66 3.89Q522.52 3.89 522.44 3.80Q522.37 3.71 522.37 3.65ZM540.78 8.69L540.78 8.69Q540.78 6.34 542.19 4.84Q543.61 3.33 546.20 3.33L546.20 3.33Q547.40 3.33 548.37 3.68Q549.33 4.03 549.89 4.54Q550.45 5.05 550.83 5.71Q551.21 6.37 551.35 6.92Q551.49 7.48 551.49 7.95L551.49 7.95Q551.49 9.86 550.75 11.16Q550.00 12.47 548.79 13.07Q547.58 13.66 546.00 13.66L546.00 13.66Q544.33 13.66 543.12 12.94Q541.91 12.21 541.34 11.10Q540.78 10.00 540.78 8.69ZM542.01 7.98L542.01 7.98Q542.01 8.54 542.16 9.19Q542.32 9.84 542.67 10.54Q543.02 11.23 543.51 11.78Q544.01 12.33 544.77 12.69Q545.54 13.05 546.45 13.05L546.45 13.05Q546.92 13.05 547.45 12.90Q547.97 12.75 548.49 12.45Q549.01 12.14 549.42 11.70Q549.82 11.26 550.08 10.62Q550.34 9.98 550.34 9.24L550.34 9.24Q550.34 6.71 549.01 5.30Q547.68 3.89 545.72 3.89L545.72 3.89Q544.18 3.89 543.09 4.93Q542.01 5.96 542.01 7.98ZM559.72 8.83L559.72 8.83Q559.72 7.31 560.33 6.09Q560.94 4.87 562.20 4.12Q563.46 3.37 565.19 3.37L565.19 3.37Q565.87 3.37 566.45 3.48Q567.04 3.58 567.42 3.72Q567.80 3.86 568.08 4.01Q568.36 4.16 568.50 4.26Q568.65 4.37 568.68 4.37L568.68 4.37Q568.72 4.37 568.87 4.26Q569.02 4.16 569.07 4.16L569.07 4.16Q569.28 4.16 569.28 4.44L569.28 4.44Q569.30 4.84 569.34 5.29Q569.39 5.74 569.44 6.03Q569.48 6.33 569.48 6.38L569.48 6.38Q569.48 6.62 569.31 6.62Q569.14 6.62 569.07 6.45L569.07 6.45Q568.58 5.39 567.43 4.65Q566.29 3.92 565.07 3.92L565.07 3.92Q563.32 3.92 562.18 5.02Q561.04 6.12 561.04 8.06L561.04 8.06Q561.04 9.35 561.51 10.49Q561.99 11.62 562.96 12.36Q563.93 13.10 565.19 13.10L565.19 13.10Q566.27 13.10 567.15 12.61Q568.02 12.12 568.12 11.49L568.12 11.49Q568.16 11.16 568.16 9.73L568.16 9.73Q568.16 9.18 567.92 8.95L567.92 8.95Q567.76 8.78 567.31 8.72L567.31 8.72Q566.89 8.68 566.82 8.55L566.82 8.55Q566.79 8.50 566.79 8.41L566.79 8.41Q566.79 8.26 567.04 8.26L567.04 8.26Q567.22 8.26 567.83 8.29Q568.43 8.33 568.60 8.33L568.60 8.33Q568.88 8.33 569.20 8.32Q569.52 8.32 569.72 8.32L569.72 8.32L569.93 8.32Q570.15 8.32 570.15 8.44L570.15 8.44Q570.15 8.54 569.79 8.69Q569.44 8.85 569.39 9.09L569.39 9.09Q569.30 9.69 569.30 10.65L569.30 10.65Q569.30 11.07 569.31 11.40Q569.32 11.72 569.33 11.85Q569.34 11.98 569.35 12.08Q569.37 12.18 569.37 12.22L569.37 12.22Q569.37 12.29 569.26 12.33Q569.16 12.36 568.92 12.42Q568.68 12.49 568.48 12.60L568.48 12.60L568.39 12.66Q568.29 12.73 568.19 12.78Q568.09 12.84 567.93 12.92Q567.77 13.01 567.60 13.09Q567.43 13.17 567.22 13.26Q567.01 13.36 566.79 13.43Q566.57 13.50 566.33 13.55Q566.09 13.61 565.83 13.64Q565.57 13.68 565.32 13.68L565.32 13.68Q563.79 13.68 562.67 13.26Q561.54 12.85 560.92 12.14Q560.31 11.44 560.01 10.61Q559.72 9.79 559.72 8.83ZM577.84 13.33L577.84 13.33Q577.84 13.13 578.05 13.06L578.05 13.06Q578.49 12.89 578.83 12.31Q579.17 11.73 580.50 8.83L580.50 8.83Q581.87 5.87 582.92 3.63L582.92 3.63Q583.02 3.42 583.09 3.36Q583.17 3.30 583.34 3.30L583.34 3.30Q583.46 3.30 583.51 3.36Q583.55 3.42 583.69 3.82L583.69 3.82Q583.77 4.06 583.83 4.23Q583.90 4.40 584.04 4.77Q584.18 5.15 584.35 5.56L584.35 5.56Q584.79 6.66 585.89 9.22Q586.99 11.77 587.09 11.98L587.09 11.98Q587.33 12.46 587.62 12.71Q587.92 12.95 588.13 12.97Q588.35 12.99 588.50 13.04Q588.64 13.09 588.64 13.26L588.64 13.26Q588.64 13.47 588.27 13.47L588.27 13.47Q588.11 13.47 587.66 13.43Q587.22 13.38 587.01 13.38L587.01 13.38Q586.74 13.38 586.32 13.41Q585.90 13.44 585.70 13.44L585.70 13.44Q585.27 13.44 585.15 13.40Q585.03 13.37 585.03 13.24L585.03 13.24Q585.03 13.15 585.14 13.08Q585.26 13.02 585.38 13.00Q585.51 12.98 585.62 12.87Q585.73 12.77 585.73 12.59L585.73 12.59Q585.73 12.28 585.38 11.33Q585.03 10.37 584.79 9.93L584.79 9.93Q584.67 9.69 584.22 9.69L584.22 9.69Q584.15 9.69 583.60 9.70Q583.06 9.72 582.53 9.72L582.53 9.72L581.78 9.72Q581.15 9.72 580.99 9.79Q580.83 9.86 580.71 10.12L580.71 10.12Q580.62 10.30 580.43 10.70Q580.23 11.10 580.16 11.26Q580.09 11.41 579.98 11.65Q579.88 11.90 579.84 12.05Q579.81 12.19 579.81 12.31L579.81 12.31Q579.81 12.63 579.97 12.80Q580.13 12.96 580.33 12.98Q580.52 13.01 580.68 13.06Q580.85 13.12 580.85 13.26L580.85 13.26Q580.85 13.36 580.80 13.40Q580.76 13.45 580.61 13.45L580.61 13.45Q580.52 13.45 580.12 13.45Q579.73 13.44 579.45 13.44L579.45 13.44Q579.14 13.44 578.75 13.47Q578.37 13.50 578.24 13.50L578.24 13.50Q577.84 13.50 577.84 13.33ZM581.35 8.71L581.35 8.71Q581.35 8.89 581.48 8.93Q581.60 8.97 582.06 8.97L582.06 8.97L582.50 8.97L583.83 8.96Q584.37 8.96 584.37 8.74L584.37 8.74Q584.37 8.55 583.69 7.01Q583.00 5.46 582.82 5.46L582.82 5.46Q582.69 5.46 582.02 7.01Q581.35 8.55 581.35 8.71ZM596.20 3.70L596.20 3.70Q596.20 3.47 596.61 3.47L596.61 3.47L598.93 3.47Q599.26 3.47 599.68 3.45Q600.10 3.43 600.33 3.43L600.33 3.43Q601.59 3.43 602.49 4.07Q603.39 4.70 603.39 5.78L603.39 5.78Q603.39 6.50 603.11 7.03Q602.84 7.57 602.51 7.81Q602.18 8.05 601.91 8.22Q601.64 8.40 601.64 8.46L601.64 8.46Q601.64 8.62 602.81 10.27Q603.99 11.91 604.42 12.38L604.42 12.38Q604.95 13.03 605.71 13.03L605.71 13.03Q605.91 13.03 605.91 13.20L605.91 13.20Q605.91 13.41 605.74 13.48Q605.57 13.55 604.87 13.55L604.87 13.55Q604.21 13.55 603.67 13.23L603.67 13.23Q602.97 12.82 601.30 10.09L601.30 10.09Q601.20 9.94 601.16 9.87L601.16 9.87Q600.49 8.78 600.12 8.78L600.12 8.78L599.83 8.78L598.98 8.78Q598.81 8.78 598.77 8.92Q598.74 9.06 598.74 9.77L598.74 9.77Q598.74 10.44 598.74 10.88Q598.74 11.31 598.75 11.43Q598.75 11.55 598.75 11.63Q598.75 11.70 598.75 11.75L598.75 11.75Q598.75 12.32 599.02 12.63Q599.28 12.95 599.61 13.00Q599.94 13.05 600.21 13.11Q600.47 13.17 600.47 13.31L600.47 13.31Q600.47 13.54 600.22 13.54L600.22 13.54Q600.21 13.54 599.26 13.49Q598.30 13.44 598.22 13.44L598.22 13.44Q597.81 13.44 597.25 13.47Q596.69 13.50 596.68 13.50L596.68 13.50Q596.39 13.50 596.39 13.27L596.39 13.27Q596.39 13.12 596.57 13.05Q596.75 12.99 596.97 12.96Q597.20 12.94 597.38 12.66Q597.56 12.38 597.56 11.86L597.56 11.86Q597.56 11.49 597.57 9.90Q597.58 8.30 597.58 7.45L597.58 7.45Q597.58 6.58 597.57 5.86Q597.56 5.14 597.56 5.08L597.56 5.08Q597.56 4.56 597.35 4.29Q597.14 4.02 596.88 3.98Q596.62 3.95 596.41 3.89Q596.20 3.84 596.20 3.70ZM598.74 5.54L598.74 5.94Q598.74 7.38 598.75 7.72Q598.77 8.06 598.85 8.12L598.85 8.12Q599.06 8.25 599.45 8.25L599.45 8.25L599.59 8.25L600.00 8.25Q601.19 8.25 601.70 7.70Q602.21 7.15 602.21 6.30L602.21 6.30Q602.21 5.43 601.53 4.72Q600.85 4.00 599.48 4.00L599.48 4.00Q598.96 4.00 598.85 4.28Q598.74 4.55 598.74 5.54L598.74 5.54ZM613.73 12.68L613.73 12.68Q613.73 12.61 613.77 12.54Q613.82 12.47 613.87 12.42Q613.91 12.38 614.01 12.29Q614.11 12.19 614.17 12.14L614.17 12.14Q614.21 12.10 614.28 12.00Q614.35 11.90 614.40 11.84Q614.46 11.79 614.55 11.74Q614.64 11.69 614.75 11.69L614.75 11.69Q614.82 11.69 615.03 11.86Q615.24 12.03 615.48 12.46Q615.72 12.89 615.72 13.44L615.72 13.44Q615.72 14.32 615.10 15.04Q614.47 15.76 614.10 15.76L614.10 15.76Q613.89 15.76 613.89 15.58L613.89 15.58Q613.89 15.48 614.02 15.36Q614.15 15.23 614.32 15.10Q614.49 14.97 614.62 14.71Q614.75 14.45 614.75 14.11L614.75 14.11Q614.75 13.83 614.63 13.62Q614.50 13.40 614.40 13.31Q614.29 13.22 613.97 12.98L613.97 12.98Q613.79 12.85 613.76 12.82Q613.73 12.78 613.73 12.68ZM633.74 3.77L633.74 3.77Q633.74 3.68 633.84 3.60Q633.93 3.53 634.09 3.53L634.09 3.53Q634.17 3.53 634.37 3.54Q634.56 3.54 634.62 3.54L634.62 3.54Q634.83 3.54 635.01 3.53Q635.19 3.51 635.31 3.51L635.31 3.51Q635.43 3.51 635.60 3.59Q635.77 3.67 635.80 3.75L635.80 3.75Q635.82 3.79 635.95 3.94Q636.08 4.09 636.29 4.33Q636.50 4.56 636.66 4.79L636.66 4.79Q638.57 7.27 641.76 10.77L641.76 10.77Q641.84 10.86 641.96 10.99Q642.08 11.12 642.13 11.18Q642.18 11.24 642.24 11.30Q642.29 11.35 642.33 11.38Q642.36 11.40 642.39 11.40L642.39 11.40Q642.53 11.40 642.53 10.53L642.53 10.53L642.53 8.89Q642.53 7.95 642.52 7.31Q642.52 6.66 642.51 6.38Q642.50 6.09 642.50 6.02L642.50 6.02L642.50 5.92Q642.50 5.45 642.44 5.11Q642.38 4.77 642.29 4.59Q642.21 4.41 642.05 4.28Q641.89 4.16 641.77 4.12Q641.66 4.09 641.45 4.05Q641.24 4.00 641.16 3.98L641.16 3.98Q640.88 3.89 640.88 3.74L640.88 3.74Q640.88 3.53 641.14 3.53L641.14 3.53Q641.23 3.53 641.82 3.54Q642.40 3.54 642.47 3.54L642.47 3.54Q642.81 3.54 643.22 3.53Q643.64 3.51 643.73 3.51L643.73 3.51Q643.97 3.51 644.06 3.56Q644.15 3.61 644.15 3.75L644.15 3.75Q644.15 3.81 644.08 3.86Q644 3.91 643.92 3.94Q643.83 3.98 643.75 4.00L643.75 4.00L643.66 4.03Q643.20 4.28 643.20 5.61L643.20 5.61L643.20 6.15Q643.20 7.21 643.13 9.83Q643.05 12.46 643.05 13.08L643.05 13.08L643.05 13.36Q643.05 13.68 642.85 13.68L642.85 13.68Q642.73 13.68 642.63 13.58L642.63 13.58Q637.98 8.19 637.08 7.17Q636.17 6.16 636.08 6.16L636.08 6.16Q635.94 6.16 635.94 7.11L635.94 7.11Q635.94 8.44 635.88 9.97Q635.82 11.51 635.82 11.65L635.82 11.65Q635.82 12.28 636.04 12.61Q636.26 12.94 636.51 12.98Q636.76 13.02 636.98 13.07Q637.20 13.12 637.20 13.26L637.20 13.26Q637.20 13.41 637.15 13.45Q637.10 13.50 636.97 13.50L636.97 13.50Q636.87 13.50 636.53 13.48Q636.19 13.47 635.47 13.47L635.47 13.47Q635.35 13.47 634.96 13.48Q634.56 13.50 634.28 13.50L634.28 13.50Q633.98 13.50 633.98 13.27L633.98 13.27Q633.98 13.15 634.16 13.11Q634.34 13.08 634.61 12.89Q634.87 12.71 635.01 12.21L635.01 12.21Q635.10 11.89 635.22 9.60Q635.35 7.32 635.35 6.45L635.35 6.45Q635.35 5.25 635.01 4.65Q634.68 4.06 633.92 3.98L633.92 3.98Q633.74 3.96 633.74 3.77ZM651.91 3.68L651.91 3.68Q651.91 3.61 651.92 3.58Q651.94 3.56 652.01 3.53Q652.08 3.50 652.23 3.50Q652.39 3.50 652.88 3.53Q653.37 3.56 653.81 3.56L653.81 3.56Q654.09 3.56 654.33 3.54Q654.56 3.53 655.13 3.53L655.13 3.53Q655.42 3.53 655.42 3.72L655.42 3.72Q655.42 3.85 655.33 3.88Q655.23 3.91 655.08 3.92Q654.93 3.93 654.79 4.02Q654.64 4.10 654.54 4.43Q654.44 4.76 654.44 5.32L654.44 5.32L654.44 5.71Q654.44 6.37 654.44 7.37Q654.43 8.37 654.43 8.74L654.43 8.74Q654.43 9.17 654.44 9.39Q654.44 9.62 654.47 10.04Q654.50 10.47 654.55 10.72Q654.60 10.96 654.71 11.32Q654.82 11.68 654.98 11.89Q655.14 12.10 655.39 12.35Q655.63 12.60 655.96 12.73Q656.28 12.87 656.71 12.96Q657.15 13.05 657.68 13.05L657.68 13.05Q658.13 13.05 658.38 13.03Q658.63 13.02 659.07 12.94Q659.51 12.87 659.77 12.72Q660.03 12.57 660.36 12.27Q660.69 11.97 660.87 11.54Q661.05 11.10 661.18 10.43Q661.30 9.76 661.30 8.90L661.30 8.90Q661.30 7.49 661.30 6.75Q661.29 6.01 661.29 5.94L661.29 5.94Q661.29 5.45 661.27 5.17Q661.25 4.89 661.13 4.55Q661.01 4.21 660.79 4.06L660.79 4.06Q660.65 3.96 660.42 3.93Q660.20 3.89 660.06 3.87Q659.92 3.85 659.92 3.75L659.92 3.75Q659.92 3.53 660.20 3.53L660.20 3.53Q660.28 3.53 660.74 3.54Q661.21 3.56 661.28 3.56L661.28 3.56Q661.61 3.56 661.99 3.54Q662.37 3.51 662.47 3.51L662.47 3.51Q662.76 3.51 662.76 3.70L662.76 3.70Q662.76 3.81 662.46 3.98Q662.16 4.16 662.09 4.30L662.09 4.30Q661.93 4.59 661.93 5.22L661.93 5.22Q661.93 5.32 661.94 5.62Q661.95 5.92 661.95 6.16L661.95 6.16Q661.95 8.85 661.72 10.28Q661.50 11.70 661.04 12.36Q660.59 13.01 659.68 13.40L659.68 13.40Q658.94 13.71 657.68 13.71L657.68 13.71Q655.34 13.71 654.36 12.81L654.36 12.81Q653.59 12.10 653.41 11.09Q653.23 10.09 653.23 7.64L653.23 7.64L653.23 7.41Q653.23 6.86 653.24 6.20Q653.25 5.54 653.25 5.39L653.25 5.39Q653.25 4.62 653.07 4.33Q652.89 4.05 652.22 3.95L652.22 3.95Q651.91 3.91 651.91 3.68ZM670.32 3.65L670.32 3.65Q670.32 3.46 670.71 3.46L670.71 3.46Q670.77 3.46 670.89 3.47Q671.02 3.49 671.09 3.49L671.09 3.49Q671.13 3.49 672.41 3.52Q673.68 3.56 674.51 3.56L674.51 3.56Q674.80 3.56 675.95 3.53Q677.11 3.50 677.31 3.50L677.31 3.50Q677.57 3.50 677.57 3.82L677.57 3.82Q677.57 3.91 677.49 4.38Q677.40 4.84 677.40 5.25L677.40 5.25Q677.40 5.38 677.33 5.47Q677.26 5.56 677.18 5.56L677.18 5.56Q676.97 5.56 676.97 5.26L676.97 5.26Q676.97 4.89 676.73 4.58Q676.49 4.27 676.14 4.26L676.14 4.26Q674.88 4.16 674.21 4.16L674.21 4.16L673.85 4.16Q673.12 4.16 673.00 4.26Q672.88 4.37 672.85 5.01L672.85 5.01Q672.80 6.02 672.80 7.35L672.80 7.35Q672.80 8.05 673.06 8.06L673.06 8.06L673.41 8.06L674.00 8.06L674.44 8.06Q675.28 8.06 675.56 8.01Q675.84 7.95 676.06 7.80L676.06 7.80Q676.33 7.62 676.38 7.28L676.38 7.28Q676.42 7.04 676.58 7.04L676.58 7.04Q676.70 7.04 676.73 7.08Q676.76 7.13 676.76 7.27L676.76 7.27Q676.76 7.36 676.70 7.91Q676.65 8.46 676.65 8.74L676.65 8.74Q676.65 9.00 676.67 9.24Q676.69 9.48 676.69 9.59L676.69 9.59Q676.69 9.94 676.59 9.94L676.59 9.94Q676.38 9.94 676.28 9.60L676.28 9.60Q676.09 9.02 675.93 8.92L675.93 8.92Q675.64 8.72 674.59 8.72L674.59 8.72Q674.17 8.72 673.91 8.72Q673.65 8.72 673.57 8.71Q673.50 8.71 673.45 8.71Q673.40 8.71 673.36 8.71L673.36 8.71Q672.78 8.71 672.78 8.97L672.78 8.97Q672.78 9.38 672.77 9.99Q672.76 10.60 672.76 10.99L672.76 10.99L672.76 11.55Q672.76 12.56 673.09 12.66L673.09 12.66Q673.44 12.77 673.69 12.77L673.69 12.77Q674.74 12.77 675.53 12.67Q676.33 12.57 676.72 12.42Q677.12 12.28 677.39 12.10Q677.66 11.93 677.73 11.78Q677.81 11.63 677.89 11.54Q677.96 11.44 678.05 11.44L678.05 11.44Q678.22 11.44 678.22 11.68L678.22 11.68Q678.22 12.28 677.61 12.89Q677.01 13.51 676.56 13.51L676.56 13.51Q675.56 13.51 674.29 13.44Q673.02 13.37 672.71 13.37L672.71 13.37Q672.32 13.37 671.73 13.43Q671.15 13.50 670.81 13.50L670.81 13.50Q670.52 13.50 670.52 13.36L670.52 13.36Q670.52 13.23 670.52 13.19Q670.52 13.15 670.56 13.12Q670.60 13.09 670.65 13.08Q670.70 13.08 670.83 13.03Q670.96 12.99 671.12 12.92L671.12 12.92Q671.45 12.75 671.56 12.26Q671.66 11.77 671.66 10.21L671.66 10.21L671.66 8.47Q671.66 8.09 671.68 7.29Q671.71 6.50 671.71 6.05L671.71 6.05Q671.71 5.67 671.68 4.77L671.68 4.77Q671.66 4.37 671.33 4.14Q670.99 3.92 670.54 3.91L670.54 3.91Q670.32 3.91 670.32 3.65ZM686.32 10.82L686.32 10.82Q686.32 10.53 686.52 10.53L686.52 10.53Q686.70 10.53 686.74 10.67L686.74 10.67Q686.88 11.00 687.00 11.25Q687.12 11.49 687.39 11.85Q687.65 12.21 687.96 12.44Q688.27 12.67 688.75 12.84Q689.23 13.01 689.81 13.01L689.81 13.01Q690.86 13.01 691.50 12.45Q692.13 11.90 692.13 11.00L692.13 11.00Q692.13 10.35 691.70 9.90Q691.26 9.46 690.70 9.27Q690.14 9.09 689.28 8.77Q688.42 8.46 687.88 8.13L687.88 8.13Q686.60 7.38 686.60 6.08L686.60 6.08Q686.60 4.83 687.50 4.08Q688.41 3.33 689.85 3.33L689.85 3.33Q690.38 3.33 691.12 3.56Q691.85 3.79 691.87 3.79L691.87 3.79Q691.91 3.79 692.02 3.74Q692.13 3.68 692.19 3.68L692.19 3.68Q692.37 3.68 692.40 3.79L692.40 3.79Q692.69 5.49 692.69 5.70L692.69 5.70Q692.69 6.09 692.50 6.09L692.50 6.09Q692.37 6.09 692.30 5.89L692.30 5.89Q692.13 5.49 691.97 5.24Q691.81 4.98 691.74 4.91Q691.67 4.84 691.38 4.58L691.38 4.58Q690.62 3.91 689.54 3.91L689.54 3.91Q688.67 3.91 688.09 4.33Q687.50 4.75 687.50 5.46L687.50 5.46Q687.50 6.09 687.84 6.50Q688.18 6.90 688.76 7.13Q689.33 7.35 689.96 7.55Q690.59 7.74 691.30 8.09Q692.01 8.44 692.47 8.93L692.47 8.93Q693.03 9.53 693.03 10.43L693.03 10.43Q693.03 11.90 692.09 12.76Q691.15 13.62 689.77 13.62L689.77 13.62Q688.80 13.62 688.21 13.52Q687.62 13.41 687.01 13.09L687.01 13.09Q686.83 12.98 686.57 12.00Q686.32 11.02 686.32 10.82ZM701.12 5.32L701.12 5.32Q701.12 4.76 701.26 3.88L701.26 3.88Q701.26 3.85 701.27 3.78Q701.27 3.71 701.28 3.69Q701.29 3.67 701.30 3.62Q701.30 3.57 701.32 3.55Q701.33 3.53 701.35 3.49Q701.37 3.46 701.40 3.44Q701.43 3.43 701.47 3.42Q701.51 3.40 701.57 3.39Q701.62 3.39 701.69 3.39L701.69 3.39Q701.92 3.39 702.88 3.44Q703.84 3.50 705.64 3.50L705.64 3.50Q708.72 3.50 709.95 3.43L709.95 3.43Q709.97 3.43 710.00 3.42Q710.04 3.42 710.05 3.42L710.05 3.42Q710.21 3.42 710.26 3.50Q710.32 3.58 710.32 3.65L710.32 3.65Q710.32 3.75 710.36 4.24Q710.40 4.73 710.40 4.79L710.40 4.79Q710.40 5.14 710.36 5.23Q710.32 5.32 710.18 5.32L710.18 5.32Q710.07 5.32 710.02 5.15L710.02 5.15Q709.91 4.75 709.83 4.60Q709.74 4.45 709.46 4.34Q709.18 4.23 708.61 4.23L708.61 4.23L706.79 4.23Q706.45 4.23 706.38 4.36Q706.30 4.49 706.30 5.12L706.30 5.12L706.30 5.81Q706.30 7.69 706.28 9.11Q706.26 10.54 706.26 10.93L706.26 10.93Q706.26 11.13 706.25 11.43Q706.24 11.73 706.24 11.84L706.24 11.84Q706.24 12.45 706.44 12.64L706.44 12.64Q706.62 12.81 706.85 12.90Q707.07 12.99 707.23 13.01Q707.39 13.02 707.50 13.08Q707.62 13.13 707.62 13.26L707.62 13.26Q707.62 13.41 707.55 13.45Q707.48 13.50 707.28 13.50L707.28 13.50Q707.11 13.50 706.54 13.44Q705.96 13.38 705.73 13.38L705.73 13.38Q705.56 13.38 705.05 13.43Q704.54 13.48 704.30 13.48L704.30 13.48Q703.78 13.48 703.78 13.26L703.78 13.26Q703.78 13.12 703.86 13.07Q703.95 13.02 704.19 12.98Q704.44 12.95 704.51 12.94L704.51 12.94Q704.98 12.82 705.04 12.38L705.04 12.38Q705.18 11.14 705.18 7.08L705.18 7.08L705.17 4.58Q705.17 4.31 705.01 4.25Q704.86 4.19 704.10 4.19L704.10 4.19Q703.12 4.19 702.63 4.24Q702.13 4.30 702.04 4.35Q701.96 4.40 701.85 4.54L701.85 4.54Q701.72 4.70 701.64 4.91Q701.57 5.11 701.55 5.24Q701.53 5.38 701.46 5.47Q701.40 5.56 701.27 5.56L701.27 5.56Q701.12 5.56 701.12 5.32ZM717.96 3.70L717.96 3.70Q717.96 3.47 718.37 3.47L718.37 3.47L720.69 3.47Q721.01 3.47 721.43 3.45Q721.85 3.43 722.09 3.43L722.09 3.43Q723.35 3.43 724.25 4.07Q725.14 4.70 725.14 5.78L725.14 5.78Q725.14 6.50 724.87 7.03Q724.60 7.57 724.27 7.81Q723.94 8.05 723.67 8.22Q723.39 8.40 723.39 8.46L723.39 8.46Q723.39 8.62 724.57 10.27Q725.75 11.91 726.18 12.38L726.18 12.38Q726.71 13.03 727.47 13.03L727.47 13.03Q727.66 13.03 727.66 13.20L727.66 13.20Q727.66 13.41 727.50 13.48Q727.33 13.55 726.63 13.55L726.63 13.55Q725.97 13.55 725.42 13.23L725.42 13.23Q724.72 12.82 723.06 10.09L723.06 10.09Q722.96 9.94 722.92 9.87L722.92 9.87Q722.25 8.78 721.88 8.78L721.88 8.78L721.59 8.78L720.73 8.78Q720.57 8.78 720.53 8.92Q720.50 9.06 720.50 9.77L720.50 9.77Q720.50 10.44 720.50 10.88Q720.50 11.31 720.50 11.43Q720.51 11.55 720.51 11.63Q720.51 11.70 720.51 11.75L720.51 11.75Q720.51 12.32 720.78 12.63Q721.04 12.95 721.37 13.00Q721.70 13.05 721.97 13.11Q722.23 13.17 722.23 13.31L722.23 13.31Q722.23 13.54 721.98 13.54L721.98 13.54Q721.97 13.54 721.01 13.49Q720.06 13.44 719.98 13.44L719.98 13.44Q719.57 13.44 719.01 13.47Q718.45 13.50 718.44 13.50L718.44 13.50Q718.14 13.50 718.14 13.27L718.14 13.27Q718.14 13.12 718.33 13.05Q718.51 12.99 718.73 12.96Q718.96 12.94 719.14 12.66Q719.32 12.38 719.32 11.86L719.32 11.86Q719.32 11.49 719.33 9.90Q719.33 8.30 719.33 7.45L719.33 7.45Q719.33 6.58 719.33 5.86Q719.32 5.14 719.32 5.08L719.32 5.08Q719.32 4.56 719.11 4.29Q718.90 4.02 718.64 3.98Q718.38 3.95 718.17 3.89Q717.96 3.84 717.96 3.70ZM720.50 5.54L720.50 5.94Q720.50 7.38 720.51 7.72Q720.52 8.06 720.61 8.12L720.61 8.12Q720.82 8.25 721.21 8.25L721.21 8.25L721.35 8.25L721.76 8.25Q722.95 8.25 723.46 7.70Q723.97 7.15 723.97 6.30L723.97 6.30Q723.97 5.43 723.29 4.72Q722.61 4.00 721.24 4.00L721.24 4.00Q720.72 4.00 720.61 4.28Q720.50 4.55 720.50 5.54L720.50 5.54ZM734.94 8.69L734.94 8.69Q734.94 6.34 736.36 4.84Q737.77 3.33 740.36 3.33L740.36 3.33Q741.57 3.33 742.53 3.68Q743.50 4.03 744.06 4.54Q744.62 5.05 745.00 5.71Q745.37 6.37 745.51 6.92Q745.65 7.48 745.65 7.95L745.65 7.95Q745.65 9.86 744.91 11.16Q744.17 12.47 742.96 13.07Q741.75 13.66 740.17 13.66L740.17 13.66Q738.50 13.66 737.29 12.94Q736.08 12.21 735.51 11.10Q734.94 10.00 734.94 8.69ZM736.18 7.98L736.18 7.98Q736.18 8.54 736.33 9.19Q736.48 9.84 736.83 10.54Q737.18 11.23 737.68 11.78Q738.18 12.33 738.94 12.69Q739.70 13.05 740.61 13.05L740.61 13.05Q741.09 13.05 741.62 12.90Q742.14 12.75 742.66 12.45Q743.18 12.14 743.58 11.70Q743.99 11.26 744.25 10.62Q744.51 9.98 744.51 9.24L744.51 9.24Q744.51 6.71 743.18 5.30Q741.85 3.89 739.89 3.89L739.89 3.89Q738.35 3.89 737.26 4.93Q736.18 5.96 736.18 7.98ZM763.53 13.33L763.53 13.33Q763.53 13.13 763.74 13.06L763.74 13.06Q764.19 12.89 764.53 12.31Q764.86 11.73 766.19 8.83L766.19 8.83Q767.56 5.87 768.61 3.63L768.61 3.63Q768.71 3.42 768.79 3.36Q768.87 3.30 769.03 3.30L769.03 3.30Q769.16 3.30 769.20 3.36Q769.24 3.42 769.38 3.82L769.38 3.82Q769.47 4.06 769.53 4.23Q769.59 4.40 769.73 4.77Q769.87 5.15 770.04 5.56L770.04 5.56Q770.49 6.66 771.59 9.22Q772.69 11.77 772.79 11.98L772.79 11.98Q773.02 12.46 773.32 12.71Q773.61 12.95 773.83 12.97Q774.05 12.99 774.19 13.04Q774.34 13.09 774.34 13.26L774.34 13.26Q774.34 13.47 773.96 13.47L773.96 13.47Q773.81 13.47 773.36 13.43Q772.91 13.38 772.70 13.38L772.70 13.38Q772.44 13.38 772.02 13.41Q771.60 13.44 771.40 13.44L771.40 13.44Q770.97 13.44 770.85 13.40Q770.73 13.37 770.73 13.24L770.73 13.24Q770.73 13.15 770.84 13.08Q770.95 13.02 771.08 13.00Q771.20 12.98 771.32 12.87Q771.43 12.77 771.43 12.59L771.43 12.59Q771.43 12.28 771.08 11.33Q770.73 10.37 770.49 9.93L770.49 9.93Q770.36 9.69 769.92 9.69L769.92 9.69Q769.85 9.69 769.30 9.70Q768.75 9.72 768.22 9.72L768.22 9.72L767.48 9.72Q766.85 9.72 766.69 9.79Q766.53 9.86 766.40 10.12L766.40 10.12Q766.32 10.30 766.12 10.70Q765.93 11.10 765.86 11.26Q765.79 11.41 765.68 11.65Q765.58 11.90 765.54 12.05Q765.51 12.19 765.51 12.31L765.51 12.31Q765.51 12.63 765.67 12.80Q765.83 12.96 766.02 12.98Q766.22 13.01 766.38 13.06Q766.54 13.12 766.54 13.26L766.54 13.26Q766.54 13.36 766.50 13.40Q766.46 13.45 766.30 13.45L766.30 13.45Q766.22 13.45 765.82 13.45Q765.42 13.44 765.14 13.44L765.14 13.44Q764.83 13.44 764.45 13.47Q764.06 13.50 763.94 13.50L763.94 13.50Q763.53 13.50 763.53 13.33ZM767.05 8.71L767.05 8.71Q767.05 8.89 767.17 8.93Q767.30 8.97 767.76 8.97L767.76 8.97L768.19 8.97L769.52 8.96Q770.07 8.96 770.07 8.74L770.07 8.74Q770.07 8.55 769.38 7.01Q768.70 5.46 768.52 5.46L768.52 5.46Q768.39 5.46 767.72 7.01Q767.05 8.55 767.05 8.71ZM781.90 3.70L781.90 3.70Q781.90 3.47 782.31 3.47L782.31 3.47L784.63 3.47Q784.95 3.47 785.37 3.45Q785.79 3.43 786.03 3.43L786.03 3.43Q787.29 3.43 788.19 4.07Q789.08 4.70 789.08 5.78L789.08 5.78Q789.08 6.50 788.81 7.03Q788.54 7.57 788.21 7.81Q787.88 8.05 787.61 8.22Q787.33 8.40 787.33 8.46L787.33 8.46Q787.33 8.62 788.51 10.27Q789.68 11.91 790.12 12.38L790.12 12.38Q790.65 13.03 791.41 13.03L791.41 13.03Q791.60 13.03 791.60 13.20L791.60 13.20Q791.60 13.41 791.43 13.48Q791.27 13.55 790.57 13.55L790.57 13.55Q789.91 13.55 789.36 13.23L789.36 13.23Q788.66 12.82 787.00 10.09L787.00 10.09Q786.90 9.94 786.86 9.87L786.86 9.87Q786.18 8.78 785.82 8.78L785.82 8.78L785.53 8.78L784.67 8.78Q784.50 8.78 784.47 8.92Q784.43 9.06 784.43 9.77L784.43 9.77Q784.43 10.44 784.43 10.88Q784.43 11.31 784.44 11.43Q784.45 11.55 784.45 11.63Q784.45 11.70 784.45 11.75L784.45 11.75Q784.45 12.32 784.71 12.63Q784.98 12.95 785.31 13.00Q785.64 13.05 785.90 13.11Q786.17 13.17 786.17 13.31L786.17 13.31Q786.17 13.54 785.92 13.54L785.92 13.54Q785.90 13.54 784.95 13.49Q784.00 13.44 783.92 13.44L783.92 13.44Q783.51 13.44 782.95 13.47Q782.39 13.50 782.38 13.50L782.38 13.50Q782.08 13.50 782.08 13.27L782.08 13.27Q782.08 13.12 782.26 13.05Q782.45 12.99 782.67 12.96Q782.89 12.94 783.08 12.66Q783.26 12.38 783.26 11.86L783.26 11.86Q783.26 11.49 783.27 9.90Q783.27 8.30 783.27 7.45L783.27 7.45Q783.27 6.58 783.27 5.86Q783.26 5.14 783.26 5.08L783.26 5.08Q783.26 4.56 783.05 4.29Q782.84 4.02 782.58 3.98Q782.32 3.95 782.11 3.89Q781.90 3.84 781.90 3.70ZM784.43 5.54L784.43 5.94Q784.43 7.38 784.45 7.72Q784.46 8.06 784.55 8.12L784.55 8.12Q784.76 8.25 785.15 8.25L785.15 8.25L785.29 8.25L785.69 8.25Q786.88 8.25 787.40 7.70Q787.91 7.15 787.91 6.30L787.91 6.30Q787.91 5.43 787.23 4.72Q786.55 4.00 785.18 4.00L785.18 4.00Q784.66 4.00 784.55 4.28Q784.43 4.55 784.43 5.54L784.43 5.54ZM797.72 5.32L797.72 5.32Q797.72 4.76 797.86 3.88L797.86 3.88Q797.86 3.85 797.87 3.78Q797.87 3.71 797.88 3.69Q797.89 3.67 797.90 3.62Q797.90 3.57 797.92 3.55Q797.93 3.53 797.95 3.49Q797.97 3.46 798.00 3.44Q798.03 3.43 798.07 3.42Q798.11 3.40 798.17 3.39Q798.22 3.39 798.29 3.39L798.29 3.39Q798.52 3.39 799.48 3.44Q800.44 3.50 802.24 3.50L802.24 3.50Q805.32 3.50 806.55 3.43L806.55 3.43Q806.57 3.43 806.60 3.42Q806.64 3.42 806.65 3.42L806.65 3.42Q806.81 3.42 806.86 3.50Q806.92 3.58 806.92 3.65L806.92 3.65Q806.92 3.75 806.96 4.24Q807.00 4.73 807.00 4.79L807.00 4.79Q807.00 5.14 806.96 5.23Q806.92 5.32 806.78 5.32L806.78 5.32Q806.67 5.32 806.62 5.15L806.62 5.15Q806.51 4.75 806.43 4.60Q806.34 4.45 806.06 4.34Q805.78 4.23 805.21 4.23L805.21 4.23L803.39 4.23Q803.05 4.23 802.98 4.36Q802.90 4.49 802.90 5.12L802.90 5.12L802.90 5.81Q802.90 7.69 802.88 9.11Q802.86 10.54 802.86 10.93L802.86 10.93Q802.86 11.13 802.85 11.43Q802.84 11.73 802.84 11.84L802.84 11.84Q802.84 12.45 803.04 12.64L803.04 12.64Q803.22 12.81 803.45 12.90Q803.67 12.99 803.83 13.01Q803.99 13.02 804.10 13.08Q804.22 13.13 804.22 13.26L804.22 13.26Q804.22 13.41 804.15 13.45Q804.08 13.50 803.88 13.50L803.88 13.50Q803.71 13.50 803.14 13.44Q802.56 13.38 802.33 13.38L802.33 13.38Q802.16 13.38 801.65 13.43Q801.14 13.48 800.90 13.48L800.90 13.48Q800.38 13.48 800.38 13.26L800.38 13.26Q800.38 13.12 800.46 13.07Q800.55 13.02 800.79 12.98Q801.04 12.95 801.11 12.94L801.11 12.94Q801.58 12.82 801.64 12.38L801.64 12.38Q801.78 11.14 801.78 7.08L801.78 7.08L801.77 4.58Q801.77 4.31 801.61 4.25Q801.46 4.19 800.70 4.19L800.70 4.19Q799.72 4.19 799.23 4.24Q798.73 4.30 798.64 4.35Q798.56 4.40 798.45 4.54L798.45 4.54Q798.32 4.70 798.25 4.91Q798.17 5.11 798.15 5.24Q798.13 5.38 798.06 5.47Q798.00 5.56 797.87 5.56L797.87 5.56Q797.72 5.56 797.72 5.32ZM814.56 3.65L814.56 3.65Q814.56 3.46 814.95 3.46L814.95 3.46Q815.01 3.46 815.14 3.47Q815.26 3.49 815.33 3.49L815.33 3.49Q815.37 3.49 816.65 3.52Q817.92 3.56 818.75 3.56L818.75 3.56Q819.04 3.56 820.20 3.53Q821.35 3.50 821.55 3.50L821.55 3.50Q821.81 3.50 821.81 3.82L821.81 3.82Q821.81 3.91 821.73 4.38Q821.65 4.84 821.65 5.25L821.65 5.25Q821.65 5.38 821.58 5.47Q821.51 5.56 821.42 5.56L821.42 5.56Q821.21 5.56 821.21 5.26L821.21 5.26Q821.21 4.89 820.97 4.58Q820.74 4.27 820.39 4.26L820.39 4.26Q819.13 4.16 818.45 4.16L818.45 4.16L818.09 4.16Q817.36 4.16 817.24 4.26Q817.12 4.37 817.10 5.01L817.10 5.01Q817.04 6.02 817.04 7.35L817.04 7.35Q817.04 8.05 817.31 8.06L817.31 8.06L817.66 8.06L818.24 8.06L818.68 8.06Q819.52 8.06 819.80 8.01Q820.08 7.95 820.30 7.80L820.30 7.80Q820.57 7.62 820.62 7.28L820.62 7.28Q820.67 7.04 820.82 7.04L820.82 7.04Q820.95 7.04 820.97 7.08Q821.00 7.13 821.00 7.27L821.00 7.27Q821.00 7.36 820.95 7.91Q820.89 8.46 820.89 8.74L820.89 8.74Q820.89 9.00 820.91 9.24Q820.93 9.48 820.93 9.59L820.93 9.59Q820.93 9.94 820.83 9.94L820.83 9.94Q820.62 9.94 820.53 9.60L820.53 9.60Q820.33 9.02 820.18 8.92L820.18 8.92Q819.88 8.72 818.83 8.72L818.83 8.72Q818.41 8.72 818.15 8.72Q817.89 8.72 817.82 8.71Q817.74 8.71 817.69 8.71Q817.64 8.71 817.60 8.71L817.60 8.71Q817.03 8.71 817.03 8.97L817.03 8.97Q817.03 9.38 817.01 9.99Q817.00 10.60 817.00 10.99L817.00 10.99L817.00 11.55Q817.00 12.56 817.33 12.66L817.33 12.66Q817.68 12.77 817.94 12.77L817.94 12.77Q818.99 12.77 819.78 12.67Q820.57 12.57 820.97 12.42Q821.37 12.28 821.63 12.10Q821.90 11.93 821.98 11.78Q822.05 11.63 822.13 11.54Q822.21 11.44 822.29 11.44L822.29 11.44Q822.46 11.44 822.46 11.68L822.46 11.68Q822.46 12.28 821.86 12.89Q821.25 13.51 820.81 13.51L820.81 13.51Q819.80 13.51 818.53 13.44Q817.26 13.37 816.96 13.37L816.96 13.37Q816.56 13.37 815.98 13.43Q815.39 13.50 815.05 13.50L815.05 13.50Q814.76 13.50 814.76 13.36L814.76 13.36Q814.76 13.23 814.76 13.19Q814.76 13.15 814.80 13.12Q814.84 13.09 814.89 13.08Q814.94 13.08 815.07 13.03Q815.21 12.99 815.36 12.92L815.36 12.92Q815.70 12.75 815.80 12.26Q815.91 11.77 815.91 10.21L815.91 10.21L815.91 8.47Q815.91 8.09 815.93 7.29Q815.95 6.50 815.95 6.05L815.95 6.05Q815.95 5.67 815.92 4.77L815.92 4.77Q815.91 4.37 815.57 4.14Q815.23 3.92 814.79 3.91L814.79 3.91Q814.56 3.91 814.56 3.65Z"></path></g></svg>