<svg data-v-423bf9ae="" xmlns="http://www.w3.org/2000/svg" viewBox="0 0 798.2240062636483 60" class="font"><!----><!----><!----><g data-v-423bf9ae="" id="9a4f7365-39e2-4ce3-8e1c-743069f66cb7" fill="white" transform="matrix(6.054490506946714,0,0,6.054490506946714,-2.0585420072232523,-17.134207672738235)"><path d="M0.34 2.90L7.76 2.90L7.76 3.92L4.68 3.92L4.68 12.67L3.42 12.67L3.42 3.92L0.34 3.92L0.34 2.90ZM12.09 5.50L12.09 5.50Q15.15 5.50 15.15 8.52L15.15 8.52Q15.15 8.96 15.09 9.45L15.09 9.45L10.05 9.45Q10.05 11.65 12.62 11.65L12.62 11.65Q13.84 11.65 14.79 11.38L14.79 11.38L14.79 12.40Q13.84 12.67 12.48 12.67L12.48 12.67Q8.78 12.67 8.78 9.00L8.78 9.00Q8.78 5.50 12.09 5.50ZM10.05 8.39L10.05 8.39L13.93 8.39Q13.89 6.51 12.09 6.51L12.09 6.51Q10.17 6.51 10.05 8.39ZM18.12 12.67L16.85 12.67L16.85 5.50L17.71 5.50L17.93 6.41Q18.87 5.50 20.20 5.50L20.20 5.50L20.20 6.55Q18.92 6.55 18.12 7.46L18.12 7.46L18.12 12.67ZM22.73 12.67L21.46 12.67L21.46 5.50L22.32 5.50L22.54 6.41Q23.49 5.50 24.81 5.50L24.81 5.50L24.81 6.55Q23.53 6.55 22.73 7.46L22.73 7.46L22.73 12.67ZM25.74 10.51L25.74 10.51Q25.74 8.30 28.65 8.30L28.65 8.30Q29.59 8.30 30.52 8.44L30.52 8.44L30.52 7.76Q30.52 6.52 28.59 6.52L28.59 6.52Q27.48 6.52 26.32 6.86L26.32 6.86L26.32 5.84Q27.48 5.50 28.59 5.50L28.59 5.50Q31.79 5.50 31.79 7.72L31.79 7.72L31.79 12.67L31.08 12.67L30.64 11.96Q29.57 12.67 28.30 12.67L28.30 12.67Q25.74 12.67 25.74 10.51ZM28.65 9.32L28.65 9.32Q27.00 9.32 27.00 10.49L27.00 10.49Q27.00 11.65 28.30 11.65L28.30 11.65Q29.61 11.65 30.52 10.95L30.52 10.95L30.52 9.46Q29.59 9.32 28.65 9.32ZM37.39 2.90L43.78 2.90L43.78 3.92L38.66 3.92L38.66 7.21L43.54 7.21L43.54 8.23L38.66 8.23L38.66 12.67L37.39 12.67L37.39 2.90ZM46.07 9.06Q46.07 11.65 48.23 11.65L48.23 11.65Q50.38 11.65 50.38 9.06L50.38 9.06Q50.38 6.52 48.23 6.52L48.23 6.52Q46.07 6.52 46.07 9.06L46.07 9.06ZM44.81 9.08L44.81 9.08Q44.81 5.50 48.23 5.50L48.23 5.50Q51.65 5.50 51.65 9.08L51.65 9.08Q51.65 12.67 48.23 12.67L48.23 12.67Q44.82 12.67 44.81 9.08ZM53.42 2.90L54.69 2.90L54.69 12.67L53.42 12.67L53.42 2.90ZM58.07 12.67L56.81 12.67L56.81 2.90L58.07 2.90L58.07 6.06Q59.12 5.50 60.48 5.50L60.48 5.50Q63.16 5.50 63.16 7.57L63.16 7.57Q63.16 9.07 61.11 9.65L61.11 9.65L63.41 12.67L61.81 12.67L59.53 9.63L59.53 9.06Q61.90 8.85 61.90 7.56L61.90 7.56Q61.90 6.52 60.40 6.52L60.40 6.52Q59.21 6.52 58.07 7.16L58.07 7.16L58.07 12.67ZM64.95 2.90L66.21 2.90L66.21 12.67L64.95 12.67L64.95 2.90ZM69.25 9.06Q69.25 11.65 71.41 11.65L71.41 11.65Q73.56 11.65 73.56 9.06L73.56 9.06Q73.56 6.52 71.41 6.52L71.41 6.52Q69.25 6.52 69.25 9.06L69.25 9.06ZM67.99 9.08L67.99 9.08Q67.99 5.50 71.41 5.50L71.41 5.50Q74.83 5.50 74.83 9.08L74.83 9.08Q74.83 12.67 71.41 12.67L71.41 12.67Q68.00 12.67 67.99 9.08ZM77.80 12.67L76.54 12.67L76.54 5.50L77.39 5.50L77.62 6.41Q78.56 5.50 79.88 5.50L79.88 5.50L79.88 6.55Q78.60 6.55 77.80 7.46L77.80 7.46L77.80 12.67ZM84.11 5.50L84.11 5.50Q87.17 5.50 87.17 8.52L87.17 8.52Q87.17 8.96 87.11 9.45L87.11 9.45L82.07 9.45Q82.07 11.65 84.64 11.65L84.64 11.65Q85.87 11.65 86.82 11.38L86.82 11.38L86.82 12.40Q85.87 12.67 84.51 12.67L84.51 12.67Q80.81 12.67 80.81 9.00L80.81 9.00Q80.81 5.50 84.11 5.50ZM82.07 8.39L82.07 8.39L85.96 8.39Q85.91 6.51 84.11 6.51L84.11 6.51Q82.20 6.51 82.07 8.39ZM92.29 12.33L92.29 12.33L92.29 11.17Q93.83 11.72 95.61 11.72L95.61 11.72Q98.14 11.72 98.14 9.87L98.14 9.87Q98.14 8.30 96.28 8.30L96.28 8.30L95.02 8.30Q91.95 8.30 91.95 5.63L91.95 5.63Q91.95 2.83 95.88 2.83L95.88 2.83Q97.59 2.83 99.06 3.24L99.06 3.24L99.06 4.40Q97.59 3.86 95.88 3.86L95.88 3.86Q93.21 3.86 93.21 5.63L93.21 5.63Q93.21 7.21 95.02 7.21L95.02 7.21L96.28 7.21Q99.40 7.21 99.40 9.87L99.40 9.87Q99.40 12.74 95.61 12.74L95.61 12.74Q93.83 12.74 92.29 12.33ZM101.11 10.74L101.11 4.33L101.90 4.33L102.18 5.50L104.12 5.50L104.12 6.52L102.38 6.52L102.38 10.64Q102.38 11.65 103.24 11.65L103.24 11.65L104.12 11.65L104.12 12.67L102.92 12.67Q101.11 12.67 101.11 10.74L101.11 10.74ZM110.65 5.50L111.91 5.50L111.91 12.67L111.04 12.67L110.82 11.76Q109.52 12.67 108.20 12.67L108.20 12.67Q105.72 12.67 105.72 10.00L105.72 10.00L105.72 5.50L106.99 5.50L106.99 10.02Q106.99 11.62 108.58 11.62L108.58 11.62Q109.66 11.62 110.65 10.71L110.65 10.71L110.65 5.50ZM118.78 11.35L118.78 6.96Q118.02 6.59 117.03 6.59L117.03 6.59Q114.86 6.59 114.86 8.89L114.86 8.89Q114.86 11.62 117.03 11.62L117.03 11.62Q118.02 11.62 118.78 11.35L118.78 11.35ZM120.05 2.90L120.05 12.24Q118.74 12.67 116.83 12.67L116.83 12.67Q113.62 12.67 113.62 8.94L113.62 8.94Q113.62 5.50 117.02 5.50L117.02 5.50Q117.95 5.50 118.78 5.84L118.78 5.84L118.78 2.90L120.05 2.90ZM122.23 5.50L123.50 5.50L123.50 12.67L122.23 12.67L122.23 5.50ZM122.23 2.90L123.50 2.90L123.50 4.09L122.23 4.09L122.23 2.90ZM126.61 9.06Q126.61 11.65 128.76 11.65L128.76 11.65Q130.92 11.65 130.92 9.06L130.92 9.06Q130.92 6.52 128.76 6.52L128.76 6.52Q126.61 6.52 126.61 9.06L126.61 9.06ZM125.34 9.08L125.34 9.08Q125.34 5.50 128.76 5.50L128.76 5.50Q132.18 5.50 132.18 9.08L132.18 9.08Q132.18 12.67 128.76 12.67L128.76 12.67Q125.36 12.67 125.34 9.08Z"></path></g><!----><!----></svg>